<mxfile host="app.diagrams.net" modified="2022-01-27T04:05:13.274Z" agent="5.0 (Windows)" etag="-kAejQTwRTFlv3UG_iSt" version="16.4.7" type="github">
  <diagram id="0F_aNbxlMHEGzsCLxVAk" name="Page-1">
    <mxGraphModel dx="1278" dy="556" grid="1" gridSize="10" guides="1" tooltips="1" connect="1" arrows="1" fold="1" page="1" pageScale="1" pageWidth="827" pageHeight="1169" math="0" shadow="0">
      <root>
        <mxCell id="0" />
        <mxCell id="1" parent="0" />
        <mxCell id="LTde2PlZMlxUsfpOCBhm-22" style="edgeStyle=orthogonalEdgeStyle;curved=1;rounded=0;orthogonalLoop=1;jettySize=auto;html=1;" parent="1" source="LTde2PlZMlxUsfpOCBhm-4" target="LTde2PlZMlxUsfpOCBhm-15" edge="1">
          <mxGeometry relative="1" as="geometry" />
        </mxCell>
        <mxCell id="LTde2PlZMlxUsfpOCBhm-4" value="DZ Cloud Print APIs" style="shape=image;verticalLabelPosition=bottom;labelBackgroundColor=default;verticalAlign=top;aspect=fixed;imageAspect=0;image=data:image/png,iVBORw0KGgoAAAANSUhEUgAAAgAAAAGjCAMAAABtxl0VAAAArlBMVEUAAAAAAAAAAAAAAAAAAAAAAAAAAAAAAAAAAAAAAAAAAAAAAAAAAAAAAAAAAAAAAAAAAAAAAAAAAAAAAAAAAAAAAAAAAAAAAAAAAAAAAAAAAAAAAAAAAAAAAAAAAAAAAAAAAAAAAAAAAAAAAAAAAAAAAAAAAAAAAAAAAAAAAAAAAAAAAAAAAAAAAAAAAAAAAAAAAAAAAAAAAAAAAAAAAAAAAAAAAAAAAAAAAAAAAABeyFOlAAAAOXRSTlMA+ZObJMvsjIOwBDZkD1ulCAv18WpI18WgFKpOL7kqv0BFHd0YmOjkzjtvIVfaeJBfc7RSfeHSh4DmvlB4AAAfEElEQVR42uzdiXaiQBQE0MINgyKrwQXcYlyiTozGmPr/H5szu8koCNIase83cJo6zasHpLOx6i/vT23fgnSLdNXhL2Ov8VqbNiHdEv+BnziT1tbtzzRIN6BQ4gF2dymfgczTJgxx70PKthpD2T1ImdZluNIAUoZpNiMYkDKswCiKPAKyrM5IVUjXaPbujUeTxylCuYyUg3R9TFXhL8EAIVRGakC6OoUJ/xr5OOyOkZ4hXZu1wx3jIQ56Y6QnSNdFe+ZHXQ2H2IzUhnRVBh4/K+OAIaN1IF2Teon/q2O/KaOZkETRZ5X68ulb+TlvtO7uVqvgrmU0HnPll+q67w81xKeVY13oLhlpDCltWqHubo3ug8JQyri4yr2sfR1HG3a5n6dhnzIjdSGlR/OX6mqhMJ6S9/jUayJab8RDVOxjMFIeUirMypPxpjC5PqK8KjHDvFZkpG+QTjac54oKT6QjXDNgGGeGHYX5u1Ec8QhzSCdprnP3TMEDwlXGDDcx8ZPZew8cHq0CKbnKq6cwHSuE6tuM8ghg6K5sxiJnhJMy240R0/OMMAOH0VzXY1wlSElYa8Nhql4QpkVBipBi0+qGzbTVEGKgUJA7hLD8ni8vCj/z1TEFqCNElcIEPRzQDxSS9t0U0l9WtUgxegihUqBuBXvoLf6Rl6fAb37OoShThHikUMYsvFAWyAbRD+0uBeohxJZi2a8mPnBtOTX0keUuKFLJR4g5RVtM8Y9l8JM1bpv+XqJIC9dCGN2mcM8mfuvc8zOngBvWLDsUaVPVEEGleG8+flra/N/kdoNgc+tQJKVsIZK1oHh2FYCZl5+Nd1mvDoWadHAM3+YZNMzChAfUcIM0d0yxVA3HqfIcJg4PsW9werR9T7GcNY5m8MLub23JVCegYCMfx7PuKZhsku/SVYWCbQqIo2NTKFkk3lUbUbTNDPEseWH2zawUmgUUbtRBXHle2ELHLdBebAqnTBGbOeGFtXADOkXud/n3acGhULJLDMC1ud9XSNRzXpiS9RgwCHgOGx2J1JmQHCI8zrrEs+gn3vt6cVleLWnmKIZSGm0eFouHzbhk/81S1xgCSarIrMKEaRoXW8/flvVKoalhh6bPfB2JPPILCJBVc4fpsIv5b+2OibSt+RV4yCZtyxTYnjrvaBBi+AUCQHZPAD3gqUott6JBnBa/hGxmgM6CJ1GCJx//y94LgMxkT6Tu8ASjfNuCaNaG8dlvq7xaft/mWt5IRoDDXIWJjXM9DWewZUybfK2DHc3+a1eRHwTTrV04jR7OY2Yzjs3Wxx56LVB4CiWDC0VMgwkFNQvnYjAGr63hkMG2xMRGGbwG1LtMpKQWcD4+j+f1EEpPPOjcHSJzmkUm8bY0IYq1bHS9lvrhz34tHmszR6Rhg0mUM9gRHb4xgaAPcdzv5N2HbtswEAbgo1cqpR6SnTi2JLeW9wrq3f/9X6xAgQ60SThkUiT9vYATeIi8I+9v4Bc2ySr7JI1oBFGzJokYnyGr8UT+yXeQN0xJn3CI/y3OENNISFBzCDl9H7OFNhPL3n6iFxRw2ZC4PWQ8ePjzT/kEsg4paZWggC9NknGMIarhZajAdAdJ/a+kWR3qDh2SM44hpr4hDw2eIWexJd1qUJd1SNaYQUTFy6vhg4v8LW7tWlBWj7SdMfVyOETUh5SsRgZ8h6rFlFScIOA7+Sc8QMa8Re+yYg/AVqTmAL5n8k8VMl4GZEYfik6kaDC/y1ypEyTMEzJlDjX1kFQdcYehEi1ICKZkSlTGdZ3g/nKFVjGExT0yJ4WaKhWwYeBhfs0GyecQ9pySQUcoiadURAVcY/JIpw5h7YhM2mvImuCbMvB8Io+8QBRbk1kzqGAbKqZ6V3cB1hDVGJNhGVQEVFB6T8Eyj0yit2raBCoSAy0obw4DDM4QdIjItJBBQTekovb3kzEfQFA1JONqUNE28cJ78sMaAKztf4yhokXFPYNjRl5IGYSwz1SGHlTkVNzsPrYBnQuEsBaV4gEKFnQD3+6jIfgAIexI5Qig4GCkBh33nmrOHwtdQQhLqCRLKLjSDXQggE2y2esxdbYvEO0sf/9pBwU9uoUzxM371a2LpwQfAMvz9OtQkNzqpa08IsWhoQTYo/JUyxvYccC/fNsYhhfA9rMvT1CQapo/5FuH8BXvsCkhcwl5I03jB/geySF5DAFBSKV6ZGV9AIZKG1CHBBCwLH2Hs2UlfQ8PkMccSo8YQ8DCgp7naqdj7DRf3++x0UIrwNiKZ1rYChaQ8U1/HcD9KMm1W5FYUZrsK9mOQcR3cycRnI0UbzbwN1eyccPNuHetGwnzGwE+bwOu4KtbWtzcGunTbaFiQG4Q2QJ2bR2BsAJPs6xGdJccUbW7A/Cx3EgzYOlzelCNubgA+C0GR4UKG3idIdgG16T0CtD7LuA4U2GfoeJKThgxt0fgtw389ZnPUdJt61tAH3vV//zKfc6PqzGnHwAiVey4ScV8wls8uS1Udf3uc1P7IYaoARWMXJAz8LyQ3ZbgmUc3vxjmzeioK3gattezKuA6FS6U+3ocIOpafQhQSAKuOL9tFdCF01O3agNerL/uEDGtIwJSBjVrcsDO8RXgT5nOUna4xNu8uDH+5MWDrAe+bn7bB4An0yMzcDAX/osp09fOPkKZpf3zv21cbgL9JdM2J+Ixhqoz2e8KjtiJYta0rivUuTaHsoCsF875nVQHjOe6unO1M9R9I+sl4IhdyEE8MYiqkJR0AXVnB5YAgQc/AIMMEoaRscR0B0IEBwwfY/avAFYLSFnWSNQrw9usv0Qtqud6F4hozyCp+5mE5BkEfYlGyb5y2DH8cXbg+0/Ud72S0QzAoRpuFPa60lfPws0P9u60O00gCgPwHeMSERIBFXHDRiJq1MYlJu///2M9aZu2aZAZVhnk+dqenia+sszcuXeqvg4WdTbfqxLc/4meZO981pohEvbdpmDDE4RZJKut5LsAHYaojMYDnaUcasWr+4pSR7GhXHtEHGx/0MlP9e2leJv+vqpy72a+IS6j2ZnQJ1r39YTPCrFXEu0OYOS6u8GIIQmm1X/rrIfDw/Ou0dwUtejDnyX1O+A9csHL9bckkCvzWRBqG8gFGWo+zlClfgQcIRfuSV4Dbh1tnn1DHkh8AyDFRLC8tgP4ZYk8mFIkz3n43U7lXt9ykQNvFIlrejl4d7yVehGAaIGLG0e/+dZHdGkWguW9EkTFpW20GFU49RZdlsakvgMQKTVcWJMiced4Z142AZNX6YegVU1c2CpScMd4d8m7wKQzmIOnSrl3wIWxZaxjJvMqZc9e9z28k3oV6LfvuLAXO1YR1otL2ZpsLQYxDZKAYuHC9vF6nS80yk6rscEH2VuCfHio48K28XrdjxXKxqjxgjAMKUraiLq4MDaNV8LUpww8bHv4j+zFgH+84sLmLolSGpeYwKSsxwz/yv9gqDAUB2fVkQVHITHuGD5Yl9L09DovdpdzcufnzwCpDBm4JSHdOXyZVUrNtz2iMXPfFOavKYMf1iGi1gsy0CU+u49zehqloq2e8KGwjwDvjvAxa9E7e4/0eTpxtHf1rDtK6zsv1janTMb4omnTbx0DqVtRIL3jZd1RWDvWUfBzrf+wPXzGtvRX1UHaahRka4LDGFGi9G0d8UhW6LRk+Je3pE/UOtLFlJjda3o6JUfpzBGgMBsBZ085j236j11hSJXLCUCWY6aHG/yr0HMu/JbY2JF8TAZIk80JQHY33YkDEdLXAvh8wgzvxi3y12oiNXUK4kCAZ1MC9AbDWYXbCfqPPVytDu5F9g0GFGSR2QGDoYcvCj3sLi8nCaYUxMvoiJE7wGeF7m8YQQehLXZe/NrAIYOIF51iWdfxWaH7G2bQ8pdZ2yrRlIGnZ1OwrpH+hDGtj/9czTqgsCbEnSoHTbCLiuUST5el3Whg+QKgPPAa7AQRdetmN9Xorz0CNRTiOzAIcIgjfD+7Io+6Cs0E13ai0f/sF5xnDkmImuY3T9sjUXUqJBd8I/LRYjhn8ZTo2LmeQhFMNnh3+RNvObcEnx5uqE6lTcL6aTUXHZo4r8jzbsO6A5cXqpOCeRe/hD3+cLsdEmQs+ttu3g+FRvUWveOjNsNXpwmF4r6kUIupVJCQWfNtPZGoECy8e0Sfjzkyvv5dnUIaGeCqh/tX2wMkoNdfLSUrAIjCAtdReBXRUCm8TtKXAN1BTOb4OL2Cz/6nObjuRK8fmxFFMUj2EqBZiMPc7y7fpSI7erxi+LaDvwYaRaLNknwR0GqIbvE6LfQN/6unmLug+g1+Mzppvopu0v/8mbPKQ5OqjLngMilQqz8HsGmkPIT4QEJ0C9E4nWLu9nOZ4FkQj/2kUSztHngs0T4jUfS2BV3nFzDIRSnkFFyjaD8Nn9HPdfPftE3Bc0sZ6IPnMZ1xxrPdtbzvnTPIxTa4XQeHqadQ3GQdruyh34d2QqB6m7LQAY9KHN8YwnHknWqTJHuch9aoygYcNQr2MEcoVvnxf1hb8JFxu54h4g3ra9cQxkmug55ps6fq7WBh4gtHo6zU4j2N9hHCXC3v/X7s1t2x73j4YG4VykwXHDMK8AxxrHLtT/4cP0e+NveVO52yVAPHMpkGuSd5Ov1clwM4Kkm0yGbH8uqfU8os8tmsW4jqlV///FqBoxV7WOKjJK0+r5NuRivMVRYQY66plGePCNYjX1uImV1TqY+URogysq3KIMS50h1/mdSiVIbtIeS+fPrPv1WEI/rdwk+zviI2C92sV9lc8+H+whmHXgxcFavP+7V7DvtB6vPy+18kNgt5RvtY3v+LxQn3EGCbBR9mf3VW4VaDX8Fnlcu/EqmG6kGvmeDyyvUfqczCXM634GLl9p9cHkNsB7Q9cKlUksohxNAG9WrbexaYHaJl96J8ACignnDT/lbRpvyU3t0Idyzqg6dPJek8ix4Q0gxwzMsbgIRGCGTQB7V8AygkxRCsCrLAUaOSjCyx57on8JSnP+X0KFYWdrzS7s7F1xHb210UZ9Z76ZOp0NreU7kGWFSu0G7AChxX3fpJbiaCmGKDJx0qyWohsB2kMwQ7UElWAwSaiHSU8cpjIPJqCOwHfs9Dd8O8cZd328bNYOw4zng/qLx1unIOu1gh0LPAniGqlI7WDd9jpfF6u3seLl06q3MTkUu+lOlxPMdXRq0y1OmryU1MLUrPmr8hbCOYRSm5Qxhm7eb5gfw0EdHEP5Z1nMeaQyXxkdF3lJ4l/+o+FD5FmnYA+Cy1nW4Avlngeem0JQpAld81+BbBXPpw+QAA3nOKAaiOIWLWlScAGr99uSN8B8hDAIC9nVYAOoZ4exxZAkCMu8ljCh8hzEcAMKumEgDlHuIsTZYA1Hlf76r4PlBOAgDvIYUAtMcIo6ZLEoANgpyIhuJznvMSAJz05AMwQDhNSQKw4LWMPYoPOclNAPCYeAC2CGslRwAsBPG4yd/RX/kJAJYJB2DEEJbxIEUAHN524EL8N52jADgJB8BCeAMpArBHEIP3EsDa9FeOAoBWogHoIoqqDAFocgJgI9CJ/pGnAFQSDYADH7Pj1G0rdkvdM/iqFCEArRBHyPMUAC/JADzBx6tCH6p7+Kkr0geA0Vp83HkmAWDDPw7qsX/COdUEA7DDVw2BbfVuAQKwQqA1cSQeAPqs+sj9nzXh417jUwIelOptgcqa7xIEgPcQ+JrtOiA/AKJ3imNwAPoUgsdf/3BNfLWQIABjBDGpH2bcefYBOF+x9JhcANoiI1W+n31HelD9OP7b2X6qlCIHQebcKwRHFgFwGXzcJxcAV2QTdBRyCnMlJ132apzJMY74dLEsA8Bfzh4kF4AH+Djw7hOsvqlN8x+AHoJsaBG6GCD7AAxSvgLY8GHc0Wf92cJp3ldud+q625q4Or3LfwA8BFnQDEH29K9cBSDBZwCFwU9NtSmAJAEwEMSheui9wOwDYKX9FrCBP2bddjW5A9DmbWqbCHJDHFkEwGYR1gH6iR2f6d2oVXkD8IBAfTLCzpfMPgCv8FNNMAAqOOaDzpOcAWjxGgQwzp9zZBCAKeNMvowfAJeBb1bptuULQBeBtpwANIgj9QAoqgE/DU4AwDgaEerBzMFalywAP9i70+XkbTAMw6/BQDA4YJt9NfseICSE5/xPrDOdpqtrvTKSrbS+/me+b8IdkIWWOmLVjQ7AGdWLG0SbCAKQu/liBK6gV/tRAXwhVtu4MQAG3947VtzoVWkAVARf6faDAmggVo3Khj0F8FgTxQG4n5Bwb/+YALqINae1xHoQcwJ4IcUB0CiAjEH/hwRQRhyLjJsJZOk6ygOgmQ8Z69mPCKCPWCcy7rsAjlOf1AdAYRkyrNZPCGAnPP9xKijkzwwJ4DQnHQHQYQsp1x8QQB2xiqLfXkB/YkgA0z7pCYCcDwsyXs0PoCDc+dvj3ypjRADWh0O6AiCyG5DgT4wPoItYQ6Ivif2TBgQwsIk0BkA0alhgK5kegOMLt7bsRYn8IfMANhWbSHMARPPHBlwXwwMYIZblEN0kBjqZBtD9qBGR4gCiOe1iGSwnwwNoifd91ST2YWcaQNDbKQ4gjjOrdMDQNjuAnnjf1xyZTQS8QlKpzQ+g1xRwSGT+uhJG0DM7gAXj/d2Xfg7UvTXseK36iNbw2AGQEv1b4Y4YZaMDOHDugbnLHxOq/+tgt2Ih0rTJDkAZ+9rFv5qYHECdc3XsIM3Ngfz1AG0LkaoONwCV7IKPaEeTAxiAsevjS2qspD8AUb0VbgBqHbqI9GZwAE7A2fv/KjXXoT8A4eD+VU8A7mEUDi/7x7lXnW739A/NaXSPBgcwYx0CPEEsyyUBXQEsA8EErKIA9tXpdhGI90P0y4hQMDiAM+t8BMdnzwWmGwC9IdrWURrAirsn8gMRzgYH8Mk7AnLLHgSkHEDzE9E+FAQg6GzCnVd9MTeAHeK98y6X7JCAtgDogmj+UmUAQ+7Yro8ILXMDWDFPurzwLwxJOQDnjmhnlQEsEeHkMHdZzYwNwCkzj0iyuQtfUg+AhohmzZkBJJ8vvTD/v31jAzgi3id9K5t0ZYzFOt+kqDKAAiKUD6zFFR1zp4LHiFdkf5t2IAF9AdQQzbJFAXRbDMuY7XOdJf3VFREqxgZgg30b5B7MKyPSD4AGjA0L1SfPm3U2iLKoMe5fGxkbwBnxfI++TcA8LjaDAGwL0SbqAqAXRLJWNn2bRP8jXWMXhLiBxIXga/7BzPoDYD7LVBUGsPSBaKVKvR2265USot2MDeBNZjVbgzlcSDcAwYtTUxFA5Nvlf2FRqLdGPKsv8cAQuCSgLwB6QbSxwgD65YQ/b2wAVwiM6U9cizcVkEkA7hrRQnUB0AVJVIzdGOKtIfAq9ci4cEhAfQDCh5SuwgBoAHldx9gAHhAIPMHvmL0uSH8AzgLR2goDcDuQ9bk0dm/g3JdczLqEwJYElAfAGKKUFAZAhw3kbGxzdwf3IDITHSnNXxWgPwASPIQpCYBGZci4z809HyCU39BSZ70FZBXADNE6jsIAyD6Br+GZe0JIsyO/s71vsUYBKQbAGqS+qgyAvCKY1keTzwh6gYjfl99edXKIMgtgFPN0oi4Aot0UDP6Xa/IpYTsLCfYztTk3paYcAGOusq42AKJdw0e8z4++0ecEugsIjegfnA0Egn6GARwsRNo0FQdA5B57G/ybUyF0DD8ptAGhcbIPjhUp5tlRKNLcjtYkoqWdVJOiHW6PRndj/aX/++DlNie+vh1hSbpdIRZShLkFkR39z7j2qBbOZrOwZrv0M8ysxF9hDSDScShnNrsMsSFF2kHoQTmj9U/PfIddgohVo5zBvNJTh5ocIdTxKGcsZwyGbtwNc0Irypmq+Q4B0VD+ArEj5cwkeP05MxHOAkLBhHImYr7+/pxiXCDW+SlPxP8v/S5YHhTH6UDsPZ8NMM+hA5ZTk2LdwHCmnGFqa/CEJNAFw55yRrn44ClyDpXIHwV+GOcMpnWfhBpgsIaUM8V8Cq42b0Exgz+jnBluZXAViOMNHH6bcgbwVmC7N4nD6YDDulEuc+EJbP6IeHZgseqUy5a7goQLcRXA80K5LN02kLAiLv41uoP8y+HsTMaQ0W0SXwimu025TLhnS34jK18FTEE+JZQF760MKcGIpDTv4CrmHwNpc1obyLFmJGnkg2sRUi5FzdYCsuokrQ6+lUv69Esse5I2LiXWnb4Pii/728gjrn1J6Epi3nUDaW+UQAN86zpp0wLLgqSVocBicK05ioZVBRKZv5Qhr0JJeHdIKM1IkxJ4QtUB8AWDo5dGALuGhQQKCvaYMIx3pMMETD0NAfD5xZrmANx6CYmsKKm2ZG/TNqlXAZPvaQmAb7zTGEDY85FMgZLbQ1Kn5ZJazhpcl4wDAKoHXQFckNSZnlGALL8XkkpDsE0zDwD+XlMAdST0QU9xqpD3WamRMgPwHTIPAHh3jQqgRU9qdpHEunhzSYW+Bb6HAQHgZJsTgH+jp7l3JGOVJvS8PSQsTAgA64kpAax3pMCyg4Ta9LwtZIQmBIC1bUYA9wMpMV9kF8AIUnpGBIBT34QAqh6R5gL0B1CBFN8zIgC8GxDAB6kz72QUgLOGnIsZAeCadQDlNqm0vGcTwBCSpoYEYNnZBjCdk1puN5MAqpB1MCMAjLMMwHo4pJpXzSCAvgVZD0MCwCy7ABY70sAppB/AHtIWpgTQzSyAlUd67K20A9hCXmhIANhlE8DnjLRpl9MNYIQEeqYE0MgkgLNHGtn3VAM4IwHfMyQA300/gO2O9PJ6KQbglJHExZAA8Jp2AMHeIe0uQWoB3JDI1JQABukGYK36lAa7lFYAVSRzUBnAdfjtdrxcvxpbC1zlVAMYjyglzoeVSgBLC8k8VAZQo79phuc1eEbpBbCdUYpGpTQCuCKhha4AvjVbATjqaQVwOlLKWoH+AO5IKtQcANF8C4ZCOgGcLg6lbtnTHUANifW0BsC/Z3iaRgCdi0OZqHX1BlBAYoGnPQCyAwht9AfQHVJ2jieNATTLiBEg1kVrAPwhiqM3AKsaUqac+qe2AI6I84gvYJpCAM4GQkudAQSVA2XOqZ80BfCOOJMBYh30B0APCI30BbBtGXIsh3PsCgLQMAmwoAtiPVIIYAShnaYAgqJRV3fVGpbyAN4QpyJaKrJIIQAKIDLTEsD0Ysgf/x+WbwvFAXRED/pTxApTCGALkbb6AO5vczJSuAoUBlBDnLIjHIT3UghgmnoAnYfJ1zU1h41AVQAr4VILWzQVYEIASj8C7o8Rma7ZLnyqCKBZRpwj44bDiwkfAQoHgfaPOZBzsn8Png3giDiWy/h1Tk0YBCZ4DPxPcGr7xuKZAMaMJfch4h0MeAyc/08D+NWy/TGhZOYW4rRYC8YeugP4gpDzfw7gCW+sv6seYi00B+CKf3hDeQAaJgG2zCWDod4AzhCa5gEksuO9t7sWYvW0BjCEWCEPIJEV8yUZi6YCNAYw8yFWzwNIohkwP1hbiHfREwB/l9wkDyCJV+65p3PEm+oKYNYFR5nyANRPAqDNn4o7aAjAC78W4GnkASQxR6ygSb97QbyHggAer7+5tPaP1bhjge2YB5DEB3+/VQ3xFtluDvXyAJI4SYzsNogX/ne2h/9v7BDL6ks8MKL33zkg4pf27n0pbSCK4/jJgAopF5MYAUETiUUgI8Yaxd/7v1g7nf7T6TTHXbObM3o+D8Aw8CXkspcvo2dyZp+yEwQ+zRIxX0WUmKy/dx6jWdVdAKkGYGOCZn2zGeRZZwFkpAHYyNDo0nQfjbKjAIKVBmCjRLMj/W0BxltHARxJA7BRm55Zz9Cs6CaAbagBWCnQaBMajh0B8i4COO2TBmAjN76uvwFj3kEAQUoagJU5mj0bHzOQRP4DqEgDcHITII4sRmZV3gMYkQZgp7LYhyMHI/McQPxMGoClDM1GVsuJll4DePlGGoClEow7q03ua58BTBekAdh6Q7OThmlkDQp/ARRLIg3AWmH1Ux4HYOSeAjg9nJMGYC8HY2U1hhCYewngYR8RaQAObwIUtvvKJJHzAJJ5TkQawEdEseWHU4JTuQ3g9fE2JNIAPmgExnb4HwEYmasA4u30cDumXzSAD5vBndI+gOH3fz2eHet9la4W9JsG0IY+HKqdrBBCpAG0ZwCHCg1AvBe4lGsAwt3CqbkGINwUTiWRBiDaOIZblQYg2giOZRqAaDO4VmoAgvXhXK0BCHaEc4UGIFd4D/dyDUCsFB70NACxpvAgiTQAocYxfKg0AKEu4EWmAQg1gx9rDUCkG3hSawAiHeFJoQFIFN7Dl50GIFAKb3oagEBX8CaJNABxFgH8mWgA4lyAE1y+zwasTAMQ5wScqxaHFa41AGFuDI7bjDABq9YAhDkDJxi3eDpZaACyhBuD/23OBLydBiDKEqx9qxcUPQ1AlCuwSnq3DKwk0gAEWQTgvNL7PYE30QAE2YM1aHlw8bUGIMi25S/gEry1BiDGCqxN60+Waw1AjEewemRiB96DBiBFuAFr2forYqcBCLEEKz4nI3PwehqAEEOwhmTmGbwk0gBEWARgjchMFIA30QBE2IN3R4Z+gHetAYiwBWvmZpLJWgMQYAXegUytAV6tAQiQD3hrMvY04I3oj4PFW7CXDlhL6sJPlVD97vjrj5sAAAAASUVORK5CYII=;fillColor=#FFFFCC;" parent="1" vertex="1">
          <mxGeometry x="457" y="243" width="102.65" height="84" as="geometry" />
        </mxCell>
        <mxCell id="LTde2PlZMlxUsfpOCBhm-10" style="rounded=0;orthogonalLoop=1;jettySize=auto;html=1;edgeStyle=orthogonalEdgeStyle;curved=1;" parent="1" source="LTde2PlZMlxUsfpOCBhm-6" target="LTde2PlZMlxUsfpOCBhm-9" edge="1">
          <mxGeometry relative="1" as="geometry" />
        </mxCell>
        <mxCell id="LTde2PlZMlxUsfpOCBhm-6" value="user 1" style="points=[];aspect=fixed;html=1;align=center;shadow=0;dashed=0;image;image=img/lib/allied_telesis/computer_and_terminals/Personal_Computer_with_Server.svg;" parent="1" vertex="1">
          <mxGeometry x="50" y="131.98" width="70" height="70" as="geometry" />
        </mxCell>
        <mxCell id="LTde2PlZMlxUsfpOCBhm-11" style="edgeStyle=orthogonalEdgeStyle;curved=1;rounded=0;orthogonalLoop=1;jettySize=auto;html=1;" parent="1" source="LTde2PlZMlxUsfpOCBhm-7" target="LTde2PlZMlxUsfpOCBhm-9" edge="1">
          <mxGeometry relative="1" as="geometry" />
        </mxCell>
        <mxCell id="LTde2PlZMlxUsfpOCBhm-7" value="user 2" style="points=[];aspect=fixed;html=1;align=center;shadow=0;dashed=0;image;image=img/lib/allied_telesis/computer_and_terminals/Personal_Computer_with_Server.svg;" parent="1" vertex="1">
          <mxGeometry x="50" y="250" width="70" height="70" as="geometry" />
        </mxCell>
        <mxCell id="LTde2PlZMlxUsfpOCBhm-12" style="edgeStyle=orthogonalEdgeStyle;curved=1;rounded=0;orthogonalLoop=1;jettySize=auto;html=1;entryX=0.5;entryY=1;entryDx=0;entryDy=0;" parent="1" source="LTde2PlZMlxUsfpOCBhm-8" target="LTde2PlZMlxUsfpOCBhm-9" edge="1">
          <mxGeometry relative="1" as="geometry" />
        </mxCell>
        <mxCell id="LTde2PlZMlxUsfpOCBhm-8" value="user N" style="points=[];aspect=fixed;html=1;align=center;shadow=0;dashed=0;image;image=img/lib/allied_telesis/computer_and_terminals/Personal_Computer_with_Server.svg;" parent="1" vertex="1">
          <mxGeometry x="50" y="370" width="70" height="70" as="geometry" />
        </mxCell>
        <mxCell id="LTde2PlZMlxUsfpOCBhm-13" style="edgeStyle=orthogonalEdgeStyle;curved=1;rounded=0;orthogonalLoop=1;jettySize=auto;html=1;" parent="1" source="LTde2PlZMlxUsfpOCBhm-9" target="LTde2PlZMlxUsfpOCBhm-4" edge="1">
          <mxGeometry relative="1" as="geometry" />
        </mxCell>
        <mxCell id="LTde2PlZMlxUsfpOCBhm-9" value="print card command" style="ellipse;whiteSpace=wrap;html=1;aspect=fixed;" parent="1" vertex="1">
          <mxGeometry x="290" y="250" width="70" height="70" as="geometry" />
        </mxCell>
        <mxCell id="LTde2PlZMlxUsfpOCBhm-15" value="" style="sketch=0;aspect=fixed;html=1;points=[];align=center;image;fontSize=12;image=img/lib/mscae/Docker.svg;fillColor=#FFFFCC;" parent="1" vertex="1">
          <mxGeometry x="680" y="243" width="103.66" height="85" as="geometry" />
        </mxCell>
        <mxCell id="LTde2PlZMlxUsfpOCBhm-23" value="Docker services" style="html=1;align=center;verticalAlign=top;rounded=1;absoluteArcSize=1;arcSize=10;dashed=1;fillColor=#FFFFCC;" parent="1" vertex="1">
          <mxGeometry x="800" y="60" width="700" height="480" as="geometry" />
        </mxCell>
        <mxCell id="cr7O_yHZ1FezRyIz6jP2-1" value="" style="shape=image;verticalLabelPosition=bottom;labelBackgroundColor=default;verticalAlign=top;aspect=fixed;imageAspect=0;image=data:image/png,iVBORw0KGgoAAAANSUhEUgAAAPAAAADwCAYAAAA+VemSAAAACXBIWXMAAA7EAAAOxAGVKw4bAAAgAElEQVR4nO29ebxcxZUm+EVmvlXvad+RhDYkhHYJSSwGsxmzGrEYjDHY4N1V4yr3zHRPTfdvxl1VPb+enu6uqekqu1x2FVWY1WAhVgkwiwQYBEL7gnYJ7bv0Fr01M+aPGyfiRNy4N/O9fJLyPmXAU96MiC/inBNxloh7I6+Y/8uFEipJSAgISCkhhAAkAPMBKaW6AIQQkKBraIxULREoaI+upb4OKgpqGIAI2nGxijbqX4iAvqKwQkAQz7otyRgN2vPJJcnYYLxonMxAmFJRxiYMmzFfoPROKS90XUCq6m4+SHnBFEtl6q6VggGQkikam2oBlog3SEjeR9CO7qMYrDQ0EE+SY4WuBuKkt2Ch5AXAYKQSlJ4oZWxSsJmgjtZ9o6Qs+fICnFJOQYqvlJl1HMwtU49bEymUBbKMhtCtQwCCPCwAqTwrZHFYm0CYiENzJcEZEBDwM5c0rGTysmWljXgZmyhsSkIGVkAGE5x7OAlY342rg2lYVRRSgHtpKaHb5LGdsSwmT0jbQBDWqqdDSFk01nhriwtDs27DVorkY5kcYI+tWXKUsUnCpgQpnYq5mapBQBkI1qA1i6S5IGxgDLT2cqcRStoTKyNiDAbXQmhGgr/iscbiwYuVwhZU0EfysWYpAe3BaYJIKdnUKWOTgk3RZNBDTxqrPRtBlJJrhQxbiHzJEEL/2P2QzlPrVj0AgjxpD2Bty2ZjA6OoFEMJrTdgaTLo0JvEyG1yGZsobMZa31L4ay7txlQh7YABpswihEr1pKI6wlAkzPSz19gCDGKwoXVu97EWwgrHbazglXsZlk8QWkGDj3UZmwhsSkeclpWXWs8U3vqut7gt907EOJta5PLVRJOKWtuiwPqi1+VgbbN+egTLIg8K+3U4rg1RL8PqyAUWBiJYRklRxiYNm7G8lSSDEHjKwIO6O5xQ9ZhXtby0VLnahavOoV2/oZAsjYYFdU2RaVvrJDFYBFYFoCZKUG0pLLeGxtj0AiwfAyU4ocZd73wKWcYmCJshix0UIJSkVSZNX6qMvkopofsMSrVl0foV5BodNJ1QoWnewUowZS0Sy+njmwSE1dUURjgRQ3Kxgq4Q3HFQ46FFyTYuy9hEYDMCsEJh7bGUNbCTsBTBeNOgS/t7GG/XIMUTWqkDq8OKAAhGPLQHLxKr/zU3zIlvoUuF5lP2GmyADzReMjkJ5bWV1MrYxGBT7i4yrR/57VVuAQBACqldqr7mWIaxtsAFa4uIEYZkw0jwn1CmhrDQa+/isWq5bhkZqf8L+JK6Ti/BwrQR1Bd6PM1aq4xNElavgbXnZUpB4bNwFlnmHqyNAeDE9TAxvVYmYz1shVaEegyKu6WOIrGAMTP6u4MVLJ8/8ZRoLB9DCqWoHjPCZWxysClIPhGUlislNOG0U04dkEKqutbtDQrSJYwnNKXQ/UpYazrCKmOky8wau3gsoAxIYPo03RrrJC2whGNJbgIkM6PwXIZlbHKwofvAQkpYW5t04kUicOeCAjajINofMyXW3hYmjidyqL72pIxQn6d2U09gOc9uhADHIPQWrGtg9f6Ba3jL2MRgM/pKqxpsiwCh546AmSfaA6jysKqwck6ADEICAbPFZBkRjhX2J+3MBYx1HwtwhQiHMr466C1YicAoQ42NNq0oYxOITUld5g/FSGOlJN1jobLTpxXKMix1HnQjDD1SMqzpz0sHUdgTWF4rAiulLajegZXqUug8GTKAZWySsKlAn2zFM54KgcKpD+u2DO+TcFFhn6ZNWt+NFyeioB7Kl2BZsL70AJayyKBIKW2sYTts+BKMDQbdHkMjRWaJy9jEYFO0dtU7nJYSkJfj3s7kWYtqXgeBgklBfQkAJuwLdtu0KwXd9gnWrUQPZ061LWWPYE0bRhAcy3mBoF56B1YyLbfHr4xNIjalxj04zytp8ptnnVWLQR3uyiX0JopqQeVTWCe1zQg2jA3WkEcPJQhI8vrSYKW6Dm5X8fLisFBnl3UNaWNNPee6F2AJr9uybUIZmzBsJlAA2uBR+Y7n5budttIyJaaFuLC6UnXgSUGoQB5EEKXCxam1uTCwfNhMKoNrxs5DbUW13aUEJwsAsP7QFnxx+oBDr2pXdyxx+UUzMLx+sI8RrNy/HoebjkViiWYuh0yqAjOGT8bY/qNw+UXTMbLvMFSlK5ESKQBATubQ0tGKw83HsfrARuxrOIQNh7egoa0Jyv16aZ4+fDIu7j8ykt8P93yGk62nIaTU1rwqU4kvjbkc1RVVsbICgFUHNuJgw2GNDeoq2bM5cMXoORhU298Gq2nz0d7VON5yCgBQnanEVaPnoLayJrLfAw1HsOrgBotmX79zRk7DyL5Dw0Rroy/x6f71ONp83EuzPUbqVg6Qt9/zic1A0G6zkZzxtCqwplsVKtk7v/aOqDvmZBzsJELfaIMsnAK6tAHxtORiqzOV+OkV39GD6dLPv7+3awX+w1v/FR25TtYlC8XV9QPTb8eXxy3wtvVv3/jPWoF9WJpBEhL9qupx39Rbcdvk6zC0z2BUpivM0oLdGgICnqYCuH7cFejMZdHU3oxNR7bhre0f4O2df0R7tiNE8+2Trsfdl90cye9ji/4dTrU2gG4PCgD1lXX42dWPYUifQbGyklJiybZl+Ot3/wc6c1klexmiH5B4ZPY9mDNiqqcM+PHL/wEnWk5BSon2bAemDpuEb81cGNnv8TOn8IPFf4F9DQc1zW6/A2r64S9v+hmGOjzw650nvsA7Oz+KpJnGiO6+6DImq1LDpiBVKMq9L1ksyVRSBmVUbpyw7ZH5AASlJgygdbaK/KzEeDERgJRw6WML61gsXbvfg/pGEFeNmYOZI6aEsES02R9ACOvj14uVAmmRwt1TbsbvvvH3+MG8BzG630hUpiu8dPJIhwarIp3BgJp+uGrMXDw29370qajx9wtY2Cia9SWDcwMShb1x/FW4ZPA4jQ2WJixSU/z6sBafCitzOTy5ZjF2nPgist+BNf3wyOx7kBLpyH4fmXU3htQOjOw3J3P4rx/8Gq0dbdE003yX5DbM3M3L73nCprRHBjWkLpnGq+aUVaBrM/Dc/dOf602NklFILHkmCwCMdTH3cnUwqnD5sNSn0H98YHmqSGXwyKx7UKE9odQMaTp8sSQcGcVgKzIV+N+u/TH+4ss/wYCavhbW/aMyTr+b/rDjQ5xsbbBkhZC8w1hz+4/JSYTLo7BCCFRlKvHonPuQSqVY+KMlEsiKb7YBXh459lRrA/7x02fQnu2I7Pe2Sddj+rDJZg6yficMvBhfm3JTJFYIgZc3/wGrDmyMp1mYrUDSg5CsSgybIp8oyc9oUKDxkuJwCq+1dSBlhbIc3E2ajriJJ8thPJrxydKFQlgf4dbjsA4Vjgdwvda8UTMwd+Q01q/UrTPT4cWGabaxFekK/O/X/gR3XnpjLJbT5oaSvN/mjjN4e8eH4HK1+/W3yeUAFlW4mLxYANdcPB9Th1zikT0zqoAXa93FYNjluz/Bu7s+iuy3Ip3Bnyx4GBWpjIVNizQenrUQ9VV1kdgjTcfxz6ueR07m8tJsvBhd27IqNWwqcFxCG00KkQNLELbEFGEHLp98Myk2TXjBdFdYdOrnebXHp/+IAIaV1HpQj0LqvFgnuZ6FrzOp7e/OvR+ZVJpFCYo/tqTwYXlI6MM+OONOfPWSa+OxHtpcL0z5qw9swu5T+4JoSopwv6zdKH6llGYUHHkVgk2nUvjBvAeRQkr9Kqjx7CC6VBuhfmksJCyslDn83UdP4HDzsch+Z46Ygq9M/JKFnTNyKr48bkEkzdlcFr/57Dkcbjqm+Y2mWc0mCS1fV1alhs0YXwjLKEgZWAHBB4IqC/YsLgtbTRggyAIEOUKVSjuMtY1DOKSjDLNL3jWs683cfF4+bdgkfOniy/HerhWhdRhv2IflVTj2kkHj8NCMu5BOpWKx2VwWnx/bib2nDuBw0zFISAzpMwh9q/pgRP0wjB1wEdIijZzMYcm2ZejMZUP85vPuPtnpMY9JUTKcM3Ia5o2agU/2rTXRERvzOCwA/ag9xx49cwL/8MlT+PkNfx6J/dH8h/D+7k/R2N6Mmkw1Hpl9D2oy9t0Gjv1k71q8sW25xa/br0UzHFlBlDQ2AwKqzSI9wTRcWUzAKC41rKpQ51FrRaoXROV8Emt191WHvklkyAjK8mC1EDzKEqVEKZHC9y7/Bj7YsxKduU7WYQHKy2lWwhUQ+NbMhehXXR+L3XNqP/72o3/BqgMb0NLRYjMKoG9VHUb2HYYbx1+FCQPH4LP96zVvvn5DZaxfn3ws+mNkRfWpvCKdwXfn3o/P9q9HVua8MonCkoTIMHPsG9vex80Tr8VVY+Z4sUP7DMIjs+/B3614AteMnYc5I6dF0tzY3ox/XPksWjvbLH59/VpYz8wqVWzG6IhSWjbOwbpZrW7dsDPQIHvQHEXTdQMA9IekTbBoBbT8qzUx8mOtdkgAUloTwadMEwaOwU0TrsZSZbENP7ZHjlJiZupwcf+LcMXo2RbGxe488QX+zZL/hIONR2yuWb8NbY1oONqIz4/uQHWmCq2drXCFzPvlvPr65cnHQz4sV5CpQyfh6osvx/LdK1g7dh8+rKE7cAUcm5NZ/O1Hj2PG8EtRV1nrxS687GZ8tHc1vj37HqRFykszALy46Q18fnR7iDdfvwE2uHZvq5YyNsWttiSfJ0QQPqtP1RJrVH1lrtiEYzyDJ2nAyuPTd+nW02tfYeWZ9WY+rD9JKfH50R1obm8J5QfkCzwy+15UpSsZxWzLzePFrDUwpBbTnJFT0a+6PrSxQqm9sx3/7cPfBMrrYN1+oZ6Qa+1sA8U/QXsyhOV0+fqlHvSkj+CJ/jYd2YaWjlaLV8JWpDN4eNbdqEhXwrpF6OuRYdWF/nCxu0/uwxOrF3mxQgjUV/bBX9/0bzBh4MWR/O4+tR/PrnsF2Zz08uvr134aip70K21sSk8GNSFci6nDacE9npo8Rno8Yted0J9U2m61CyPsiGCUfedBuygAG07kfbO5HH6/cUk4mlCf4waMwp2X3qi+h1kl+l0s0Uzf5o6cbvXrYpft/iS4raE7MFi7X7rnF/wJlSfg79fl10ez7iMicWxjWzOWbH3PyuftTh16CW6acBWsIUe4Xx8WFE05WCklnt/wGtYc3OTFCiEwqHaA7c1ZeXtnO3654rc4fua0LdN8/TI5B9Fn6WNTUF5WMoQQxhNzL8zzqI6EZD2pdbRUbUmDoXbJs2vadIirMwJ6XM/A6MiH1Sw7Vl9KibqqWrywcQlOtJzWeZZCQuD+6bejf7W6Xyuiw1ALq8okJGoy1RjVb7iu71uHfrBnJbK5rMWv5F6Y90t9CxEsdyTdMvJj4/qFadFnm0LYPpW1eG79a2hoa7K8HP2lRArfmH4n+lbVWTRzuXNZ6bFQdAQBmQjxe6ajFb9Y8SSaO1q8/fK2OM0AsHzPp1i++1MEs5OcAec3ul8t54RgMwImNDHCDlvowBPbaz+BcEXagaY1tXelqjqwfCz7EhgFaoNZWVY5FqvzReiztqIaR5qOYdGmpfj+5d8I8QgAo/uNwB2X3oAn1ywO0e+uGV2aAWBATV8Mqh0Qqk/XLR2t2H58t/4uIXH75Otx5Zg53rZ9afvxPXhyzYvolFndry2TcL9uosjKrcfr11ZUY8+p/Xh963t4cMadoTaklLhk0DjcOOFqLN78pt1+jJs3fREtghcCANYd+hwvbX4LD874WvDEkdOvj8eTLafxixW/hbur6/Ib168rl1LGZohRvYnFF9JK0XQdblGVe6VG9S4Z68Rcw7QJ5V3A21K9qvbozq6waihPK+yJ6sP6Eg14OpVGDhKvfP42bp90PUb2HcbkSBIQuOvSr2Dp1mU4duaE5aW4V3M3ZMi3VGWqUJNhBwMcbENbE5raz1hGbvLg8bh54jVWPR+WPvtW1eHptS9ByJzuNyr52oPy2K7HdOtlUmlI5LBo41LcNOFqDOkz0KorhEBaCNw79Ra8u/MjnGpr8LbnpwFs1hnTSzMQkHhyzWIsGDULEwddHOrX1+4/f/Y89jUcYq2a+cf5jes3SdiUvukOAbqBrKvQhGGqrRWZNyx9njJYr7nKq/tif/Q9aE8wUg1CgkLv/Fg38UGuSFVAQOBw0zG8/PnboTCb0qh+w3HHpTeyPqInIZh4BYLnU4U6VeSjoTPXic5cJ+PFDjXj6I/r1wONwZqRiUpSSmTSFQAEvjh9AG9sWx4KWylNHHRx8JAFk1dcFMAnr5mBbDzV54mWU1i8+c3IfnnadGQ7Fm9+k8nVnnVd6Tcp2JTlzQSsKoCtsLpZJ4QFzMQT+junJGLyedaoUrIdVd4nnMmdD8vywpMnqPTK529j3+mDXiVOqcMHw+uGAAie1/WtLQ3Wz6Km36kfRXN4owfefh0xqHrx/YY2shA5MhrL0wsbl+Bo8wk/XRD4xow7MKC6HwDgdEtDZL/UNyLKADNGfSpqcP24K0LGwNfu/oZDaM92WMsoL78F9JsUbEr/YLQ0O8mCaaFuOHC/rGVboELYniQolrodl1xWaq29gj9Y5cSgFe7lwfI8v9Akjp05gcWb3wrVpfrD6gbja2pHOpvLWe3yTy4OKSWyuRxyMuufuEIgLdJIizTg8usYIx82rl+z1PBjDU7VizAU4RTkHWw8jNe3vhs2BKrtUX1H4JZJXwYAZGXWKvO2KxCiye33a1O+gtkjp3rKwm3fMP5KXDVmrtMek4tZRObtNynYlPkp/3A7gRM12qQnlrR10gwOUzDJvosgvDP3sEQs/abtcF+MtzzYsCKYKEGAniN+Zcvb2HPqgN9DCYF7p92K4XVD0NjerPNsnu1+BYL7tS0drSGDQNj6qjrUVdWy588DqUhI88A9wjut+frV/0b0y8eJjDYceXm9G/1SixR4bv1r2gu7BkeI4Fhf36o6NLY1h/q12qX5wWlS4w0ZjNHEgWPx6Jz7QJunbqTkRiUpkcJfXPtjDKkdZNEc5je+3yRhM0KYOrZ/M9bNaL6q7Oi7MeTUiu+xOvLlyiQIurJ7DuqyMF4E5JpCsFaisXRt7Zpb7jmAn25txAsbX8fPrvqufmaZp/7VffGtWQuDX3Fw+vG1LQVwurUBx1tOYWjdYO/6s6aiCsPrhmLHiS80dsnWZdh0ZLtV78YJV+G6cVd4+3X5dd9Q6Os3vCYNGywvltoWwImWU/j9pqX40bxvevsYWNsfD828C41tzbG0aGI5TWxiVWeq8KdXfFs/ihrFh5s3pM9A/PTKb+M/vvO3yMoc8yEOvxH9uvyWOlbNWLIENCFJ222LLKT93Vr/SbOPra0HSxL2ZpC1/qNr4dzjo+8wGzSFYHWfHotttaFYf33Lu9jXcNBp27Rzx+QbMLh2QKiMKxOPTs50tGJ/w2EPvVJ7ihvGX4mUegxQyuAJsTe2Lccb25bjze3v483t71uRgc+juv3619fR61A3KyQfS26m8u83LMGxMycjveL9029HbWW1t9+oNaDFC4CbJ16DBaNnesvjvDEA3DD+Ktw++QaLZh+/Ue26/JYyVikwe66HGhEqzIQ7YQxCGFMB8I0tMgS6c+kYGvMwiCCsEKF8KaE3zLjHy4fV/Qg7z10vU+Da1N6CZ9a9rNfZroJUZ6rw1Uu+7NBmT06LLgisObjJUjgXe83YeZgw8OJQmaDlhfS0W0C/Zgz9WDUcoTHh/NoyItkLsulobG/Cs+tf8coKAGoranDzxGtDNNvRHO/T5ndk/TD8eP5DloHjWAmJNQc3qUMnYZor0hl8//JvYOKgcaztML9uv7asRCKwKZoKEmCbGkroDlrSv4JuM4FWtFqwkpQ/aAZEBq3peH6+xAeMfy80RVl7szFnFPn1Le9h98l9Fo5PDH6qiNPn0hR4donVBzehsb3ZO8EBoF91PX529WMYWNM/hA0sVrTn8isB23B06oQ8t4rTJJcFK/eHqGpYFXbxpjetKMPF0nPglBeSk5lNql3Txk+v/DYG1PSLxO4+uQ//x9t/gw/3fOalWUqJoXWD8KN53wx+2NDDr69fTpfLb6liU5ZKS/uZZiGlDlHJC+q2laAED7e5Vw5iuqAdkNfVQN2H5CTqSeookLEEdnkMFohReNJfZsnasu14fNUL+nuUkkR/5wMQnDRaf+jzWOzckdPw32/997h6zFxkUmmNDZoSqEilu9xvHM1hg8bHK5x8/VBqaj+DJ9csVn3n79f1vrSHIWj5pui4acLVuHbs/EhsTubw9yt+iyPNx/Cblc/hpHok1tfvlWPm4O7LbvbwG+5X8+jMsVLHZnRoJZyhVHmSOVTdvHQGTVB468JpEe58OgOpsRTWWlXIuPA2RCzWl6zJSE3xLoTEu7s+xrZjuzBx0FjFVjgkNSy7nletOtRnTubwzLpXMPei6ahKV0ZipwydiP/81X+HI03HcLIl2PwaWNMPfavqvL8Sma9fquOjOZQEydPIyIuV0D/KoMN0SLy1/X08MP12XNz/orz9+umw582Amn74kwWPIK0Mlw/7hx0f4sM9nwEQ2HZ8F57fsATfv/wBb79pkcKjc+7DmkObsenINsZveL4SPfRLkC6/pYo1a2CpGuCC0JODeWIhTB5gvCzNIhABjDj1aUIBx8NaVBlDInQsEVb8fFie+NrZIsuqLNCR7cBvPnsu1C7HRm30GC5NWrl/PZZsXRai2cVWpDIY1W8Epg2bhOvGLcCM4Zdi7IBR6FNZE9kvZ8PtN4rmkBKx4IuX+2RlR1cBrrG9Gb9d86JVv6B+qW+n7IfzHsSI+iGR2Kb2M/jlJ08aWQB4fsNr+PzYjsh++1bX46dXfBvVmSqL33jD5ue3FLEpvvNFmzhGQCZ8Jg8d3llkiisIZfdubZ6oP9cA2BT7k7s2LRTrn7jSqR4YqY++WI11EaGvz0OFhcqNTA5/9/ET2HhkWyw2ah0X16+Hy7xYkx8MgomQTF1vyC1px9/BSon3dq3AlqM7vdhwvzyZySClxLVj5+O2SddrjIuVUuIXK36Lg41HLezp1kb8csVTaO1oi+x39sipeGT2PYxfNi+dPmhuePktQewFd5xQ8yeEsj20+RNgWzvb8PS6l9RRP1iTQTh0WZOT6rEwXgqgqb0Z/8vS/wsbjmyNxrLvFo0x/XK5uP3GYbWc9AaJK2YbG/ChlidsCUPYpvZm/G7Da8g5ihMlK+49ab4MrO2PH89/CJXpikjs+sNb8NqWdxnN5i7Fx/tW483t78f2+8isuzF35LQQthSOBBaDVb9KKS2lkjIckgWe2HmIAGaQTR4ZBGm+uymgxAlTWTECAqQzvbjixmJ1frSHo2hCMGFQvyv2rsFqdZiccG6IyP84ltsQ4v1ky2n87LW/wqJNS9HcfiaMjfDoUf0CQEtHG8yuv91vPiyXgdufl46YPCB4uwX9dE0+WbljkUml8cisuzFuwOhIbGtnG/7hk6fQ2tlm9cvl/I+fPoMj6mEbX58V6Qr8r9f8AH3V3QR3jHhmPn5LCRt+OyFgPlkobepA53HDrte1QnldCPX6S1NDXwn6Tj6chQegBbyzo63KJcNFY8PJssqEF2Tl7H7PdLbiqbWL7VeXOO24Xs3enydupf6vsb0J/8/7v8afvf6XePXzt3Go8ShyEYrrti2lREtHK7Yd3413dv4R//Hdv8X/+Phf1OtN7H7z8c5yvf1EtMD+DWMb25vxzPpX9H1ZX3tRbc8ZOQ13TbFfBePWf3XL21hzcHOoX7UvC0DiyJnj+NWnT8f2O7b/KPxw3oPB3GRYyecR04MofksJK+b9YiF/m6Fx38J4XC1c5TndtZgVboGmk4R5vs/kFpbC9QtvQSIl0pg48GJUqFeX8JSTWWw+uiNEt9tLRaoC4weORiaVydvjF6f3o5FeOgYtptg0rG4wLqofhtkjp2J0vxGoylQGBxwQ7GB35jrR0NaE3Sf3Y9vx3Whsa8KhpqPWM8YuzVICF/UdigE1/cMdqrTzxBdo6WS/cSWC21UTBl7s5bUj24Gtx3eF8glLlFSlKzFu4GjNQ1zafXIvmjpaIJQcBqtXokSlPaf2oan9jLdfnlIihSlDJsa21ZHrwLZju5zYLn+K6/d8YsX8XyzUW8ZS/+OEpZK8E5uZbJb6NlfCyuGlThsEd+0SbJLA0tooY9JVrGSeOuRJ89CcdKxdoMZQKrPtaaeMLW1srz1OGIflNYQQgYXjWElhjdtS8rHgoZpZVDH5lLFJwvbi44TRWAEB8xoWaR3rM1QLleE/9pVEbAANxpuMNiTHoYxNGLbXHieMw+prEoywsXrp7rSVdCzJ3eC4bASrWsYmBat2LUjL2SkiUlS+aaUacdebQVUJqRfbruIDPMIP7+BKPS9degOHElwEHz2HBYR6gs3ND/Lc2zxJxwo+O4DIzbYyNjlYpcBCeypJa2FSZEeJTcjGWtVW3/RqbyTZC/SQ5eFYlm8ZgVA0UDxWShYVuM2q0Maw2BuwKh9AcJcBoXLKK2OTge21xwnjsGZjLrz5BpCSKElFHPtKIlYINTTKyktWRsFKGZssbK89ThiLJV3QOiEsbCBEFUFY1ibZWFfpocdLPSJQxiYOm+JhJt2eAMuTYPmq+SAuZ08PCWHv9qo6sDyFVB1LbmIQPCxCBicot9uSjEEqKBLrOjBVTlhpd8NSsrHcmgdFBiRlGZtErFkDq1LaCCFrLgS0Bw50UimyXudKo/x6xR19nFCpGfhTXnZobNbjdj61Dav/7mAtsnxYtyhcNZHY0IMC3KbFLU/K2JLFZtxnhPmtI7rXRB5OSLaO5b2S4gpqhSZUUJc8Njcs2sqEttnc9lmJNPQVjSUqNZxjBQdqw5V0rN5KFMzI8fGXxtGXscnAZrQCKGWQ5InZhKfbQzJoMbiW5JlFgNNeVflaUnhlOTQJIvzAmP0YmTCHHSTDMhrcxX/3sUoY9Nw3YbklFMbPJU/Q7MUAACAASURBVB2rZUDmle3MB3WDqzI2OdiUeX8R2AaJsQxCCJMftKjy7R75V+2tGSGu0pJV0WtYZmWEMgxEuNB923WLwUJKtWxgNBKWOzzp6SehWD5OOsnwZxmbHGxGKqCwNBLWNdUhbTVuX+hGpfrNKr6xJFS58ZIGxxVMSqGVLES0lSUhApdeFJasXhBBSFj3yyQ0X0S3EKqOsC3m5MHj0aeyJtxZOfVoOtXSiJ0nvgD5JgBs3iF2jEzd3onNkEJSIs8J1iAPw3lMbqJv1RFTLG4IROjaEKZXzJbZMXV4iNxTWG2qiAERxtp0C9CPi1HOVydei3937Y9QW1Ed3tgDl4szMKyeFR6dA6xbN6qtUsNuOLwV/9Or/yfOdLQyt2XPK98Y8aLAKPc+rHmXiIT2PloBdahqK6y1btbtOU+N8LKIZBRf3dHloYTqnxOt6/cI1jBubai5otR1DXZAdV98e849wW8Oq7yop8R4f9aGIcs7V9h8daP6ON/YKUMm4JZLvsxQQoeRqpLJhzu+bupd2FQw15X2CuXVhDA6Cr9l5PeGhRDMw3G6uGKEVENhVUjA+9B9MwVEeBJ0G8tpC9A2VslDsjzO9y2TrsP4AWNYhCLMhl/I6Lm3uuy8c43lE8WKvDztlgo2JVJ4bO79wate2Th7V336u57t5roXYsvHCSG7dDRvUO0APDD9drtrx4sELIeVyw0XzxfWp/Dcm5cidnDtAPxo/jeRFjRugg2uPUY0vsHwBvM7mLey12FTxtPyZISow5/AzRHeWAPwa2NBwpbUdC50G47X1nWFqSkCrG5NFI/V15oZG6v3tEJtAfdNvQUj6odasnH/XHqiPNL5wLr14/JKDfvVS76MBaNmszFknpzGkY0vzTPTDnodNhVMhiBTSnNfV2VYioqQJZUmW3krU5XKPd5ZuUYpneeYhSqVEvSfKWAWuVgs0W0ZAIM18rS93bC6Ibh36q1GVsLml//58qLWhOcKG5V89UsRmxICf37Vo+hTWROMsAy3x8c31J/+7D1Y/Sx04GAF1zOtyFqYltUklGrM0nSypCwUgPa92kgYjycshRNC6LpuCmgsEsvpcGgWfjcNIQS+NWuh9321vA4PYX0e5nxiXaXg4avbTqliL+5/ER6edY/xXo4c+PiGkoQy0L0HmwKUQGEUwfZLAdATrBq1IWE7aOOFhfU9MDpqEFl7rolxPQ2/LgbLYSrT4U2Gskf3HYE7L70xb/tueVzZ+ca6Sl9Iu6WAvXfqLfrXJ0MjF+X1qV+Ygze9AZsy3pF5JBbC6HylMDzEMWorjd+Spg1jTYN65LUFnWekWF/9aeI8CsUHsmisyueRhY0VVjYAPHb5/ahKV3pDPK40cWFjqWG7GuaWCra+sg9+NP+bqE5XhvwWH1+nAMpzgPZFegNW3wfWsbZlFY239G0uSO5dad1JuqCrs3r0hkG9bBXa80vGiLEBXKHMaqBYrKHM5snQbMcSlw2ZiOvHXeEN9VyZUN/aAMaEiecaG5VIMdz2Shl7+cjpuHXSdU5u2Ciw2Cu4FoEaxNVMElatgYV+OyElIQKFM7ps1i06/NGha+DmzTupJbs2iiJVJlcyodGsvnaMLFe3J4rHkkFxDJ/1PDGMd//OnPuCt9vBGIa4zZaoyXe+sfmUyZdKFZtJZ/Dt2ffqtxmq1gIscyzCKeNj61CSSOwF8XbCEFYqrFXd4Uml+aNm4YrRs6w1G59c7qZL3Nr7fGNdpXcV3q1T6tiRfYfiu3MfQFqkveNrpnZwEeDMJJQqPE0yVr+dUElHFTjPqdKnqkNem68hyYJIGXhiKQQoWg7CbT0CdoiksbqC3lk2hiRoj9rpMawO96WNVa64Ml2Bb81aiKpMlSUPPonciccTr1OKWJ/SJA1788RrsGD0TO/4qiASFEtJKVk4SvWQaGz5OCGnkbCqytUXX45ZIy4LeUDfWtOdYPyzVLG8flKxlekK/HDeN9Gvuj40vnxeGnD4MzSPEoRNBZ5babmA8cYATHyuhEkTnXlq6L654AmtvDCFCKCwyPQjFFa3xYl1/qRx6UVhA1IoKpBhLAT6VNbimzPuRKV6QZrr5Xie6zWi6p1vrKscbigepSSljp08eDzunXprMN/Y+Fp7HDRf6TtlIbgr4s6NpGBTgLQESD+bw70snxtCCK2hQuuONBUF5ZNBgHb7dC3YDpfB8j8RhAMCQThrtVM8VkcLxIAHe924Bbhs6CTLA7jKwqMUN/GJV0pYXz2fN0wSFgAemvE1jB84OqjnyMQ4JqnGV6ookyqH50ZSsOXjhGCPsak6favq8eD0O5FJpR28f9IZgxdWqFLC5qsb1UcSsH0qa/FnVz4KAWG1F04CFIKqRkw+kDhs+TihWSXrj5snfgkTB431egXOvxvK8QlVqlg+UazIKyasTQp23qiZ+Ool1zrjK801myPGGcFOCcOWjxPC3LOWEuhf3RcPzVqoJ4erIDRhXK/hW7uVKtan8NybJxUrAPzJgocxuGYAknQksBhs+TghM15CCNwz9RaMrB8aajPKM3BFz+cxSwHr1o/LSyJ2SJ+B+OH8bwbfAWtshTX+zJPTHGBzIynY8nFCRtXQPoPwjel3hKy9+6dlJWx+fXVKCRuVfPWTigWAmydeg/mjZoYx+lPCbd6dG0nBlo8TMpq/M+e+4H4iC0N9lj4quWF3qWFdpeAhqNtOkrE1FdX4wbwH0beqzhaUhFrAOfMc4bkRSiWKLR8nDDIxceBY3OY8HB81ieLaTxLWVfpC2k0KdsqQibhn6i1mjhAWQk8Vt7dIr1/C2PJxQgAilcL3L38A1eqRybjwzRficaVJEraroWqSsCkhcP+02zFx0FgCQ3kOlNqRwGKw5eOEAOZfNBNXjpmt+SK8VvCYcM2VSSljoxIphtte0rEDa/rhu3MfQGW6EqD4UgRqEDYBcTmli73gjxNWpivw6Nyvq0G2+fdNIJo0cZstpYrNpxC+lHTstWPn4bpxC2A8i8KGW1PFxikJp6wUsRf2cUIAX5l4DaYPm2xN/rj1M5ePD1PKWFfpXYV36/QGbDqVxk8WfAuDagconJmEUoWnvrlh1CK4KFXsBX2ccEB1Xzw042tIC/ZEqWfC8IkB2JPInTxJwvomfm/EDq8bgsfmfF3t5FI4SvPAzE8+N0QQgAJgc70EsRfucUIAd1x6I8YNNG9YcCcJ/7QiE2YBk4zl9Xs79q4pN2Hm8EsR2g6RnnmkPGJ4zpYe9oI9TjiyfhjuZbcZXOsdkqHj5XheUrDuBHdD8Sgl6Q3YTCqDP7vqMVRVVLI5CwDBXRE+N7QuADT5oTNKDHtBvp0wLVL4+rRbMbxuiBVpuIlPAEtGDNNT2KzMYtX+jWjpaA21ldRUlanE5RfNQEaYU11R/EfJiqdisZcOmYCvT70NT6590d36RFLfTpjR36UpoKkP5Zmlo7Bao8lzA4CQdge8LCIZxTf9aQMh2HdW3x607mHHDRitf+PZDT19ysjxvonTE9g1BzfhZ6//NTpznV752YaCLU98co7FhumCiq6E6FlsZboCf3njz3Cd+kXPKNnEySqq/+5gBYCHZi3EB3s+xa6T+x2ahdWGPxG/KBnsBXecMC1S+Pbse1FfVecNx/jaiSumj/+ewmZlFr/69Fl0ZDugJe4Ki8vTrOwNv2oM82PZWoPJzBjnnsO2Zdvx65XP4lRrg6VsrqeMCokpryexA6r74kfzHzJnvUtEVt3FXnDHCacNm4ybJlzl0A1L+Sj5FNP1oD2BfWfHR1h3aLNZekizBCB+A29LcpPWEUiFyosNoMF4S4qgJMehx7E7TnyBp9a+pJZ0YQNHeflk1VNYIPitsxvVHCglWZWPE+bBplIp/OkVjyCtrC/nz/1z24xbjxWDbe1sw68+fTqQmrawNg+aAS4EYdoqFCtYG4KiLAfX41gAL256AxsOb/F6zEK8aFS97mIr0xX43twHMKTPwNKSVTewF9RxwuvHXYHpwyZbltldJ/M/X15PY1/YuAT7Gg5RXKIotj00pOHHvu9t+C0E6yZjbqUdqfQwtqn9DP7x02fQ3H4mVC/uLy4Vix3TfyQemrkQKfUMQKnIqqvYC+Y4YW1FDb53+TdMGxGJW2zXw/Y09nDTMTy3/lUmm5CrNfxy2ZlSxm9+bChJQO/UO1V6Grty/3os3bbcUrJ8HhVASBl7Evu1S2/EzOFTSk5WXcFeMMcJ75pyE8YOuKig9t3yuLLuYqWUeHrtyzjafIKVsIiG5/IMoTOdVgvA2gVa+alKqMUexEpIPL7qeRxoPBIycnH9ueU9ie1TWYsfznsQfSpqepzfc4W9II4TDqsbjAem32GFS26oxRUuLgTrKey247uxdNt7Ds1cXiYZ3ln7bJlTKNYpgLKkOFdH5I42n8CvP30GOZnrUojM2+xqeJ0PO3PEFNyhbimWkqwKxV4QxwkfmH47htcN0XS7IZfLF+G1EYsJ17qDzcocnlyzGKdaGx1ZhSMg95sbanUFa+eoeEstdeJq9iT2ze3vY8XeNQjg/ltEcTLmdXsCmxIpPDrnvtDvoNlcnB9ZFYLt9ccJxw8cg9sn3+ANt+I2PaImQU9g1x7chGW7VxhDZtsmR0WNgQRfB3UHa5XTIPhwZw+blTn8zR//Ga2dbUF+hKK5BtCXego7oKYfZo+YGknz+ZJVIdhefZwwLVJ4ZNY9GFDTz2qD8+jb/IhbexeLbeloxeOrXtAT2KaZGyx71zqQm3RY7BrWDHVwEdBqBkXviJ5l7J5T+/H4qhdCxtAnZ9dAusaxp7A/XvBQsBYuMVnlw/bq44SzRlyG68YtsATlhlpagGxQ3UHvKayUEh/sWYnPDmxQcpU2zXbY4udXL1G6jhW0igEbPx2eUb1zg31hwxJ8fmyHFdUVImefsvYEdnDtQDw29/6SlFUcttceJ6ypqMbDs+5GTUW1NWA+qx810K7iF4ttaGvCE2sWIZfLKr6EzS+xoQxuiD8p875RMQ7Lx8mMQ/jzXGCb28/glyueQltne5fkzGXLr3sCe/dlN+OSQWNLTlZx2N55nBDAlWPmYN6oGZped9NDyybCO0fVKwb7xrbl2HpslyJThvkleZHp8xw3KwZrrZ9p/GDakaqdc4X97MB6vE478Y6sKLlK6S5bopSzO9jaihr8cN6DyKQrSk5WUdhe+XbCPhW1+M7se5Fmx9iIdt+alSugWz/ferdQ7ImWU/jtmhcZXnj5teQFw69g7XYXa4hTOEiczzfudeY68dvVL2J/w+FYOftk6vOkPYFdMHq2+g2t0pLVhfN2QgC3TLoWkwePD/UVN4DGaIWV0a3XHeyz617F4aZjPNcYIG5pDUhdcH57AusmoUOy84E90HgYT6xehE61rIhagvgSH9OewlakMvjOnPvQv7rvWeG3p7G97jhhfVUffGfOfZY1dsMnzoMbUvkUvVjswcaj+N2G12yZaBfK+FXjIH3C6jGsNNdM3sY4n1ssACzdtgwr96+LlDOf3Fa0GBMSF4OdMHAM7pl6C6O75/jtaWyvO0740MyFGFI7UNMaFS7ZdIctMtVzFbM72F99+jRaO9oCWRZ5JLAYbAANxjsYR1WHRVvnA9uWbccvVjyJhramSDn7jCOPfPJtLHYFmxIp3D/tNkwYOKbkZOVie9VxwpH1Q3H/tNu18vjWrG4/3Du7OF6vu9h1hz/HOzv/aGwbZ0SYtgD0zuOEBWK3Ht+F361/zSwNwOuHxzMqr6ewA2r64dE5X0dFKlNysuLYXnOcUAiB717+AGorqr3WmNMdtUbi5a6l7g62I9uB36x8Dm2d7QHNJC9rkhp+zTg6UUMPYd1kzK20o5zzhH167UvYeWKvN6IJteEZF1/UVQz2y+MWYP6oWWeN357A9prjhNOGTcYN468ydVxBMIWL2tigMh7+RnnzQrDLd3+K1Qc2Gpo5/46shN/V9ig2LBQo5XfG/Txhmzta8P999DiyMuddqtB3dyyjxqhYbGW6At+f9w3UV/YpOVkRtlccJ6xMVeDROfeiJlMVifUpXlT7bnlcWVR5U3sznlzzIjrUj9RZdYQGOijpze4xrF2glZ+qhFo8D9gV+9bize3v6+++cbSWdjH99QT20sHjceelN5akrIBecpzwqjFzcflFMyyFczctXIG54ZIP60uFYt/YthyfH9sZqkNhLxMM41dY2T2NdQqgLClK7Yjcrz55CkebT3jl3NUQuVisEAKPzf06Jg68uCRllfjjhH0qa/HwrLtRma7wCMSESe5338YFx/rW0YVijzYfx7PrX0NO5iyajURs7IV0nLAQ7KGmY/j1ymdDJTyRQvLv9Bk1Pt3F1lfV4d9e80NUpCsiaY7OObuySvxxwq9MuBqXDb0kxFpciOTboPLho9bS+bAvbnoTe08f4K0pFpQhcwzuhXScsFDsG9uW41N1bzgqRZW5hrcnsNOHT8ZNE78US/P5kFXGWlvC3BfTHpacqhD6McsQAVIGVkK4pNBkJ4MAqy9WCF4SlTRdiobBtQPw0MyFSKfMA2WFrHV5G6HQPKJ+odg9pw7g9xuXat4osjBycxTR4pcbrJ7H6ufaBKOfj780sc75xrZ0tOK/vP8rXD/uSpRK2n1yL6w5jfMvq4y1ltKNCWuySiFMEEvXFFpDBDjVddCBwkgJKRSRRIEI77cxsoO+lSGAZFhGAy3sF065GWP6jwwJ2lUwzkuhSmrIDedHYTtzWTy1djFOtTYQKyrUdzBQg6DeZqH5FSZaORtYLT+EeQrqBlelgt17+iCeWLOIOQQPll3xeq68eg4rSkpWiT1OOKrfcNyrHndzd6h9yfWevjWuu/HFPwvBfn50B97Ytlx1GPyF+JOyqCOBveU4YRnbM9gU1abbRdxlaytAIKNKtqcS9I/p3b4vrKpRWB58YYZAAKy+jWXKqWZpKpXGN2fcpX9pg+8w8o2IKE9MeT5Paq3xIzytD5uVOfzTZ8+hLdtuZCKCHXfiV386opG87CxipYMNPLldrYxNFjYVTHyA1FoqzymVigdKEPwxdWYTmHCmBmX7tsf5Pa2gyDxhIhnWVBIWFgAuGTQWt026TsENPVyROY1R3+naWi5Ilz9bYaOwK/auwcd7V1vG1KXf2lXnQpCOHM4SVplYk8+WMzy/jE0ONsW9Sshrssks7f7sUFUI5RykmUF0WFmvMSSvrtslrGleBlhr3WeT/sN530R1RVXIE8alQuvxlO+eIaX2bAd+9enTyLGlhbc7bgR0NGL4PdtYwHHgfNkSxVwZW9LYjGRKxrVfT3jSR6gwktXRq1zJFE6vW2njiu7Y2tbGuhVlURbe5OI58y6agSvHzPZ6Sv7dDXl9m1BRG1ZU5ks+7NKty7D12C5vfZsPu43I/YGzhO1KSRmbDGyGv9eX3z6iW0gQzHULttvMlFJVUw43vOPrtk3fOX2uwvDbWJQq0hn8yYKHkRKpUPshtiPWr3F5IVojQmqOPd3aiMdXvYCcen6Xlh7w6L9Zlwcek/N8brC+JIxh9uDL2NLGZuAqL01O0kq3THlMAVNH+24Z9ogSEkKqRbd21MI2DDATk/ozhgJqwS5w26TrMWnwOLt9HubHhLxRClvIrnWcov9u/Ws42HjY8CqULEjQboSgCiRsb35OsA4bZEz5bj8bpDI2AdgMD830xhWkNUFIobkHNZ1RY8Kix5r0Smnp3iURKVgF8irBspiVKGz/6r741qyF1qtBLUYjQmpfcm8LRSmqT7k5du/pg3hx85uWvIgf61YbrCIEYqbCc4cNZ5l29KiWsYnCpiTokUAY683mraXY5IElb1Loa8m64QToHEn17JpEAxCsln3p7su+itH9RujvvpA7SgF5KOxLccob5dlzModn1r2M42dOemg2Rk1/J661Anp27s8y1sc31TKDVMYmCZuh9WzgGIX2JrTbSdMkaEe5cbYWNk0Kp3EY9WabXKTQUucbb64NhJNG9xuBuy+72X6XK2zF83lTd9PKxfD6bsgcFW5T/uajO/DW9g+UfNy6bg570keQXOhe3rnDuomHZfx2RRmbHKx1nJAAPC9QLqXIgnkz7la519Vu1dw3FgxPJEcRTFhKKSFw/7TbMbTPoEjmfN4yzvu6efweMsf6SZNo72zHk2sXo7G92TARgwE4q5LVPcdYN0nTXnxEV8aWKjbDoYGn5etDCSlJ+Rzdt7wwhcVMqYT216aeBPT9Ye3xTe8uVkqJSUMm4JZLrg15TcCvuO73qNtMUcm3++x68s8ObMCHe1ZaOMOvhGVVLemqPpyh6ClsRaoCw+uHYkz/kV6DV05nP51ubcA7Oz9io+ZsOsJVxLic/NhMMGGhnrF1lERFvlIF6FZjenMrqCSCTNWEBI/w9O0mYbbCubFwySJsRboC35q5EPXVdaHQt5jbSO4mllvf951SS0cr/mXV79Ge7SAZBsZIW0D13W5NVXXue/cA9pKB43DVmNmYN2omJg4ai9pMNTLpDDIp86P2+Xbg4+RYxhaO7ch24K/e+7ugns5VA+sdW1OTL0m7gi3p44RzRk7FdeOusCcu7PDY9Y4+Accpr8+zRym/lBLv7PwIaw5u0qy7NDuEaqNn5OaORhexItiR/+ol12LhlJsxbsCo2N3zQvh1ca6RLmMLw248sg3v7vzY+LEL+ThhTaYKj835OirSmZBw3RDaTXEDU4iSRoXrjW3NeHzV89CrAQDn8khg/+q+uPPSG/HA9DswuHZAQTTH8RvHdxnbNWxnLosnVi9Ce7Yd5KvcB6QAUrzgyjc3tHIWiM1Yoa7klcIPdQjVoLEcpkeiwfLWjBBtAAzXymAoLPPEQkqMHTAKM0dMgQ3xP1xRqFJb0YVnjet6dvfzxU1vYO/pg4CUhk8YmkHWkjGr5cnKu4pNCYErRs/BT+Y/hImDxoZ4j6M5jl+f7MrY7mHf3fUxPtq7GqQUDMYG0/70zY2uYjOkvFIBBQuJrUclJWjvGIC0mFEzElyTpSbIpMATM6+t2xB29CgEjjefRGNbM/pW1WlBSilDQtbtesIequti3Xru4Pi+HztzEk+uXUwdwjFHZovfkYnektL5XcNWpCrw8Ky78cjse/SrUgul2eXXVXaeXJmWsYVjs7ksfr9xSfAbaMLdhKRoK/jUTQn/3OgqtmSPEx49cwKPr3o+5B1dBXStJSlqVB3+na65UfAZAiEEnlv3qvXqD5ChYzRbvJg1g9VXV7CV6Ur87Orv4vuXfwPV7CdzC6U5n+xcD+PLL2PzY1cd2Ih1hz43WNgm+sI8TghgydZl2HniC4YLW0I3LyoVWo8nzuO4gaMt4qWKUs7WkcBMKo2fXvkdLJxyM1LsN7+6QnO+Mu5lytjuYTv0UdKcNejCBvvzeeomNqW9r1OBlItyhSKa16EjB5Y3IYMAwfw236RyhBCSoQndT7U24Ol1L2t6fJ4zhGaemOe536kNbgR8lpjSzROvwWVDJpqtNsYnpzkudQV739TbsHDKzfoH+7pDs8uvz4j5QsQytnDsW9s/xMYj2wJMdKuRJflrxGNTEDI0OSCUcsrAO+jHNITQu8q0S8pdvg69dVume50Px/oJU87/qO7bO/6IzUe3R65FItlmZT5s3EC6mxVSSmRSafzpFd9GSoetYbr1d8gQP1Z5HuzkwePx6Jz7rHu53aHZLXfzfBFMGVs4tqGtCf+y+gVkc1lnfN1x5w7LPz+6i03pwFWyXTUIdQRQqahUCiElhGTeQ+ugUmMZVqrgXrIKDyWMz9EeHqAw2/Imyms3t7fgNyufQ3u2w+th8gkgX7gUV9+1xjNHTMGN469WhkvFHy7Nas1CxovKudeNw1akMnh0zn3oV10fq6yF0sxTvmVEGVs4FgAWbVyKL04dCI+vsP/ISeklI8VevrnRRWyKh3WBx1VKxzxjoLyqjjCPTQZ1qK5/kW/qCfWjdIwoViGwDyroJsOBQBFW7F2DT/atjRUwTWJXAK6QOE8c48O6Sp9JpfGdOfeirqqPdYvMpRm0UeebAwKx2MmDJ2DB6FkhWHdp5tio5BqCMjY/dn/DISzauNTa2wHgHXM+1iaa9TTeDWwijhN25DrxxOpFaG4/o/MKDY/oM8oDU3mcQeDYcQPG4K4pN6n6gdzCNEsVXfAIQ9Jms45YfNjrxi1ATaY6Uhm7Q3NcG24qY/Njc1Lidxtex+Hm41QKPr5RWLbdhKi50VVsSmu4MNpOTFHTQjfOyp2NKe3a+WaVocKqpxWVPK723j71DdL6w1uwfPcn3pBR0+uEy66X4hhND8t3sT4FSadSuG/qrRhZPzTgRvhodrelhJaWEFBPXoWxNZkqzBpxmbffYmiOq29RWcYWhN16fBeWbH2Pt2SNr5tMiAwVBlulRWFL/jghNSohQ17YFTanPc77unlu+JnP842oH4r7p92ujZGfZjtZZk3XtbF1VX2UYfD3WwzNLtbNjwoby1gb25HrxNNrF6OhrcnCedwWb1SPcXzk3HVsot5OuOvUPry65Z2Q142zrK5XiloXu1jfYHPcbZPt3+fqiTcMVqYrg/V1TL/F0ByV3DCyjI3Grju0Ge/tWuHkhhVPsqsgeKXIM7pmd7CJezvh46teQFNbs0WLL/F8nwemz6j1cVTbVLdvVR0enrUQmVTGotna3zOtqSJlyIRTV32mRQqV6YrYfouhOd+k9qUy1qT2bAce50dJTWsBljk04ZT550XxWBVCk9ewdzppc4nH3+HJQ0pMPUjLggCsvjR/Ji8cLkclKSVOtTbgnz77nf6uqWBWNMSmo8zWMoFNel8bvA8Xe924KzF35DS3N06wHeJKxa/FovnSmcuitbMtb7/dpdlVelfh3TplrJ0+2LMSK/evg57TEeNrVCq4oCWkpQ89hE1B0BoXgJ4k9okfesSS3Dl5bc0kC6elDDxxcJgBOjTW4nDDQY3VFSBVnjEkQXvUziufv439DYdDAo4bGuFQYAAAGCBJREFUGD5AgD2YvrqGXBGJrUhn8N2596MmU21otkMPTbPFr15mSIvflo4WHD9zKm+/xdDsyoO34dYpYw2mtbMNv1n5XJBHm64R46uCV4A2bKVkYXDPYhP5dsLG9mb802fPoUltaMVNZnfA3FCUBoxjfZ9R2BnDL8UN4680SwHqXkcaDn9SRr5hsKGtGbtO7i2o32JojvPWZawf+/rW98xz+WyMfePL9cF0Fv7sCWwi304IAMt2f4JN9AwqC3u4d/dNdp+V5WUc6yt3sUIIfPfy+1Ff2UfzpWUigltFdr4IjRDxm5VZfLjnM7usB2nm+W4SwiaqjDX5p1sb8a+rf19+O2FAUGHHCU0lYWEpNbefwQsbl6Clo1XTwxWZ0xj1na65BfZZ7bjQVUqJi/oOx9en327zoqv5JpKAJQRp5PDR3lU42HikoH67SrM7QV2DEBdCXsjY5ze8hsNNx9y9R2pFX2msU+fCPE7IrWDExtYn+9Zi5f713jI3uRa3kBQVjvvSg9PvwPD6oZaj9RBh2hX+44SHm45h8ea3guNp3UhxNLtlUeF3GWvKDjQcxu83vmHVjZxJ3DjYjZ01bEkfJ+Q5bpJSorWjDc+ueyX4mRtGNw+fKc/9Tm244bDP41m0RGDrq+rw2Nz7vRjDh90GPQji8rdo41JsOrK9oH67QrPPiLlhdxnLHBoknlr7Ek60nEKM6hlsN0qKxZb8cUI3n5dDAKsPbsSmI9tCkzdqLRiX5yuz+ovBCiFw88QvYdqwyZF0m/bCPOvvkGhoa8J/ef9XONFyOhQ6F0OzT0Y+uZSxQd7Wo7vwxvblMMtIcjrSO8Yca+efPWzJHycM8j3rFfU9K7N4au1LONB4OFbZo7xTXP04S+7DVmeq8L2596MiVaGNF9HLvW4hRxG3HN2Bn7/9/6LReWSvGJrzLSPKWJOyMovfrnkRjW3N2mHpukovIsdX2H9nE5uI44Q6jOfts6stx3Zi2a4V+h29UX+UuLFyB5L/+ZQ+H3buyGm4duz8wMv65o/Q5opatPgFbfIJYMW+Nfj3b/03HGs+0SM0R6VQZFPGYvXBTfhgz6c6n4+XiUg9jXvyziY2EccJ7eTHvrBxKY40n7BrOqFJZIueAeeK0hVsZaYSD89aiH7V9WALCE1zIMpA0FLCw69UVivI/2T/Gvz563+F9Ye3IMfoKIZmtz5PZWzw9o2n1ixGi3oqjmPZlhGixjeq37OBTY+6Y8rPFSfM6/EnQMw2FA9nTYhLTZotGd05dRUK7dSfpHUyech4y0k9SQ+2obURdZW1mKMebbRCEx6qOhPfvaZy12vzsnzYgTX9cezMSf1bSUQzhcdS023L0EjS/n685RSW7foErR1tGDdwFGora7pFs7VMcurG8XOhYT/YsxJPrl1s3QkwYS6UrlgtWePrprOJTY+8ffLPrYpOmCYgjCI71oqUjhoDYLRWC5J/BvU0yTqadpRCGw9KdjxKUbWL3XFiL26ddB1qK2q8vPhSVPgZN9j5sKlUCmP6jcCy3Sv08UfLrOm9ApKZy6/TD4C2bDvWHNyEP+75DJ0yh4v6Dgt+J9qJlgqlOei2e/z2ZmxzRwv+7+X/gMNNR+2GCCvCJlZlU0Xr29nGpi+6/dKfKw6U3nFvCRT2dkKmxiQs3SGrJwX46x9IlfkmFscaWkwds4IMY9uy7chJiSvHzNG0+LySL5+Xu99dT14Itm9VHTpzneo+tWuAhDVORla0jIgaVIlTLY1YsW8N/rD9AxxsOIKqTBUG1Q5Amv0AXhTNPv4oz7cBdqFhAeCN7cuxaOMbALjk1WJR0Hx21czNEecMK+b/cqFa4tLkYcqqEMHaF6wxpujce7Cwm5TU7s5SuejNBp9HcvKisNWZSjxx73/HxQMuiqzrbggB9qDGbYJ0BdvY1oTvLf4L7D65j/HPNRc6WoE38uBV/dhMKoN+VXWYMWIKLhtyCcYPHI0JA8dgBPthgCh+8kUnFxq2paMVDz3/M+xvOORv0zG8oTruGJ0DrJj3i7v0xhYpaGjHE9ATjK+zAwUOuteKS+0wcyEla1fXgt02Y8Wn/NS3ly6OhcCN46/CX3/lf0ZKhH8QPWo3NypFrakKxb6140P8/O2/QWcua2imASFBEb+Ws43gtwisniL6mXIyGhoWmgfnAjuyfjh+ddd/wtC6QV2Ws1unGOzjq17AL1c8WdKycrGJPE4Yi0VwblO/ApQNlBs2+dZG7o5kKOLoIvbG8VdixvApNs00GM5xwmKOIhaCFQLn7JhboViBFO6ffhuG1A0sSM6uvN063cWeOHMKT61ZXNKy8mETeZwwH7Yt247HV72gD8fzAeOD6bPeUZ/dxaZECj9Z8C2kRVrzHXWcsJijiIVg+TgZwYQ/zyX2kkFjceuk68CXVHFypnz3uljsv65eZB6aKVFZ+bDJPE5YAHbNwU1YvusTdGQ781poXkZ/Uevm7mCnD5uMGydcpWl3R0jzy+UpBLpyFLEQ7Lk85lYINpPK4MGZX0O/qnrDjyNnnu8mNzzuLnb3qX14dcvbJS2rKGxijxPmw7ZnO/DMupdx/MzJSG9J19x6+6x2XMhcKPZ7lz+AuspawxMXgnR40UW+Sdh9rOByAs7qMbdCsNOHTcL1466IDXtdhXSNZ7HYnMzhX1b9PvTjEKUmqyhsYo8TFoLdcmwnlu/+RD9i2dXks9zdxY7uNwL3Tr3VlOloxNDsOlMr8cnZTSzgOHC+9Ihi5CxhK9MV+Pbse1FTUR0rZ7csaqnSXey6Q59j+W72K5MlKKs4bKKPE+bDZmUOizYtxenWRmsw3ZA63+aU1UM3sSmRwten3YaR9UMNRi1JfPyFObP77w62KyVnEysgsGDULMwfFX6FjK7jCYUpuUuU7mI7c1k8sXoRzqgfhYij+XzJKh828ccJ82F3ndyHlz//Q8iLx00CXmb1VyR2cO0APDzrbquuRbOUkTyb+sVg3XxuSP34s4GtyGTww/nf1K9OjZOzm+eGwd3FSkh8tHcVPt2/rqRllQ+b+OOE+bCAxAsbluBQ4zH4UtyEj7Pk3cEKIfCViddg2rBJAY0uzWq9Q4aPb4yRnAXFPd3BCvuPDKBejpDUzjL29kk34JJBYy25RMk539Knu9gz7S347eoX0d7ZXtKyyoftFccJ82GPnjmBFza+jvbOdosnUjjXONCfa8F7Altf1QePzLoHVelKyrVoBtQmn2/uCW2uuoUNZ5l2TJR1drH1lX3w6Jz7AqRj+HiKi3J6Avvuzo+x4cjWkpZVIdhec5wwH3bxprew9fhuf4ueAecK6pskxWCvGD0bV4yeDSnhoVkqy8MjDCUxaaKd7mB9tFMtM0hnF3v/9NsxrG5wqL18cnb7LQZ7qrUBT697CVmZK4hmjj2XsioEm5i3E5rUPWxzxxk8s+4VdOY64YsUePhL+T7F7AlsZboCD8+6G/VVtR6ahZMnzIJAIPLNhoVgQ7V16AYVnp1d7Mj6Ybh36i0h2cTJyifbYrBSSizZ+h52nPiipGVVKDYxbye0ye4e9r1dH2HzkR2h0MsNe/N53J7AThs2CV+Z8KUImu1kmURdV3QdGyZI4+Mjup7BPjTzLgys6W/JISrU9cnZze8O9tiZE3hm3ateXCnJqlBsot5OyCntDrYz14l/+uw566d33BQ3UUIbDEVgUyKFh2ffgwE1/XrkzYaFYO0cWk9RRBRdsyewkwePx1cmfikUwfgULU7GxWKf3/A6jjQfO+v8nits4t5OqA1GN7Er96/Hkm3LdBtRGyFRk8C35d9d7Mj6obh/2m2GA23YrNZUkTKCxrZa/BaEtcrj+uxZbEqk8PCsu9G3qi5cM8aLxpV3B3uo6Sie3/B6QTTbdc6drLqKTdzbCflnd7Dt2Q48v/516yVi3HrzT6svmEjEt9btLvbBGV/DRX2HqVrc6Ni3pQK5SYdFZxzyYM1QBxe0tLHGqaexAOaPmoFrxs4LeUkumyhZuQayu1gpJX698lmcaW85u/yeY2zvO05YAHbbid14Z+cfNdYdaJ54WOybgMViayqq8YN5Dyo5M7yAn1+9RJE2vyV6nLCushaPzvk6qjNVYQPMZFOonLuL3XJsJ97c9v5Z5/dcY3vlccJ82Gwui0Ub3/C+yjPq04pMmAXsCeyN46/CjOGX9srjhLdc8mXMGH6pxS+XT1dl1R1sVubw65XPoSPXedb5PdfYXnucMA4LALtP7cXSbctCE8Ba4zuTJi4ELAabSWXww3kPoiJdYeQpgltFnGYo68tTKR8nHFE3BA/PutvMIydCIXlY/Diy4vndxX6yby0+2bcmcD5nkd/zge21xwnjsFJK5KTEi5vexEb1WhZ33cQnQFzI3BNYAJg5/DJcP/5KYitEv+Q8cQFKRw4xWMHlBJzlY24pfGvW3RhePySkVK4RiwuZi8W2drThidWL0J7tKNkjgcVge/Vxwigsle9vOIQ3t72P9mxHuI7LYxdTV7GZVBqPqJ1aT/CiaaY1ET1mU6rHCS8bMhF3XnqjodmCSu+nLxWLfW/Xx1h/eEtBNAcF515WxWB79XHCKCzPeXPH+9ih3rwe5S0tLCvn9XsCO2HQxXrSR9EsmHx9/MZhu1JSDFZA4KdXfgdVmeB5bzfUBZwlmK8NTyjcVWxDWxOeWvcSOnOdeWlG3hqlic2AvR1Ah4PqP+U8rR1keoSSP0qpqimHy041edaBoZ1fAfu77koYGvLw1lWs2ewQONlyGi9seB1/8eWfoCKdsWmN2USJmkDFYAUEHpp5F/pW1aEj2+kWqgaca7fM33B0fTdm6wHssLrBeuMqalnhprjNqu5il25bhm3Hdjvzg55hgH6uiCe+ERZOpYfNwFVemmBsolhlEAj+N3UEjaQMC1hCqqOJVA4C8S0mACYMDNbhZCigFuzOra0isAEFAhRg/2HHh7j64rm4fvyVYWOWR1mj8ruLHVjTH9+Zc58X6+60+lJUv/m8Vly9YrBEU1yKk1V3sUeaj+O59a+Cnm0AzHLKRDFBrrvuoDnOU6liL4jjhCF6VLZSfbRl27Fk23Icbjquw9koRXGVyA2DSxkblSha6C3YnMxh8ea3sL/hsJXPt4P0LPZ14ckrVewFc5zQxQYsKS8sgQ/3rMTGw1tNTb6Bl2ejxOexShnr1uepN2D3nT6EFze9EYmV+h/AXhOYuZEU7AVznJBjBQLvzI/m5WQOv9vwGk61NGge84WS7qYVV6BSxPrqW9LpBdhsLodn172Cky2n4SYrDBXh7U4+N5KCvaCOE9owyeoGuesPb8EHX6zM6/l4uRu6JgXr5set1ZOE3XnyC7y29V24467AeszjI9jkYC+o44RhZbZ5yskcnln7Mhrbmr0TxV1vuilukpUCNiq5IWiSsb9Z+az9Rg52FQSRFAG6KS6ndLEX3HFCIxZhTBqLGnae3Isl296LnEDc40VtopQqNp9C+FKSsGsPbcayXZ9YjoUtPFTDcPLt8qRhL7jjhDr8dwwWfcnJHJ5b/yq2HNtp9wUTifjWnO5nKWJdpXcV3q2TJGw2l8Xff/xb5GROj6+Z2sEFLeWsecn64HMjKdgL8jihxupwX1rY/Q2H8YftH6Klo9UKT90QTwufTSaeSh3rU5qkYt/d+RE2HN5ija8KIgGw+arDUapn5mcSsRfkcUICRx3Ngwye4tlzar81UdwwFrCVJeqzVLG8fpKxTe1n8MSaF4NfmWTjy+elAYQ/Q/MoQdgL9jghlCXjiR/NO9J8HC9//gd90CHKM/Ay+rNkU0JYnu8mIWxhJAm7ZOt72EY/GczGMClHAovBXrDHCXU5J0babb61/QNsO7bLG8rRtW+9xideKWFdxXANQlzoWqrY42dO4ncbXg/Wvkw+gHYpJl+YWWCbg/DcSAr2gj5OSOsLemTFPZrX0NaE5za8hqPNJ8Jt5Ek+j3G+sW5ZVPidFKyUEi9tfgt7Tx2wQdw42GB/foKxF/RxQsFo9WEB4N2dH2Hjka3I5XIWhoevlO/zlla/5xnrhqu8vahUqlgA2NdwEIs3vxUy0jGtRpYkFXvBHycUwsbrMsVQW2c7Fm1cipnDp2BATT+LF1/KF9qeT6ybF6ccpYyVkOjMZvHc+tdwpPm4f/wjvTo9w4CSORJYDLbXv53QiyUaKIZwsWrdESwLgBX71mLl/vUhsZKy8D8uS+rTl84HNs7j8fKSx0pg67GdWLL1vaAOzNha4yvsPzL4evlFsyTB2PJxQt2SjQ2snunoX1cvwpn2FsvQ8XZdwfus6fnGRiXXEJQyVkqJMx0teGbdK2hsbw7tzejkyeNjrWdxwrHl44Tw7KBTXSE0f9uO78Sb29+3nrMF/BONK1m+DZrzgXXr81TyWEisP7QF7+1ewdd2upSPb1S/bNsn8djycUIIFPqmvyfWvIiDjUdMDoXdLISlfJ9y+SKUc4n11bc4TAC2sa0ZT65djI5suwoprZas8XWTCVXRa7Dl44Q8N48HONBwGG9t/8Dywm7oms9r8vLziXXz8623SwHbke3Eir1r9H5EfBTqdWd6jHsLtnyckKV8b/qTkHh1yzs40HDYO/HiJmhoc+I8YKOSG76WKvZ0awOeWLNIz6fwdI/LofUjRYC9A1s+TsjKC3nT35Hm43hp8x/QmeuM3ICJmrjcW54PbD5l8qVSwbZ0tOKdnX/E9uN7IsbH5HDHIpyy3oYtHyf0Yrnyy5DyLN22DDuOf2EpjPtp0QkTxfjWq+cK6yq9q/BunVLBSilxqOkonln3Cm336D+pQkzf+JqpHVzQUq43YcvHCQF09U1/p1ob8NyGV3GmozU08Xjioa0bHrr1zwfWpzSliG1sa8LSrctwsPFogNUhpblX6htfFUQCYPO1l2HLxwk5jYSl5nS0EMa+t/NjrNi7WhsQd3LyTyuqYdYzamKfKyyvX6rYbC6LXSf34fWt7xljzcdHffrGiM9L01nvwpaPE/LavIxYEsFtJhfb3HEGL3/+BzS0NVlehBs+3W6ER+Jl5wLL890khC2MUsG2drZh6bZlONJ8PMgDUIrH+s4XtnyckBMjnTalQfuwn+5bh0/3rdPK4/M0cWGvb514NrGuUrkGIS7sPV/Yo80n8O7Ojw3vwoykbQ7CYyScOr0RK+b/cqEOswM9llYVCVjWnU+kQNiSESIJAAn13DStLyHDCuhNduhNOT2JJYo1T8r0uFh/Dza2rrIPBtX2L4C2cupqSosUWjvbcaDRvGHBjTJ8ic9IK78XYjPa+6qpq/0LgcjLU2OsjlYXsgABUNWnjSu6YxsO7YL23FA2rEI+pSoGayIRYdUpxES42Kb2ZjS1NxeALL3Ehy0p2EJGKbpG78OWjxMKhKIKWj748MnGeqVhDLMHX8aWNrb8dkIYmjWWlgZmDeGIM6FYx5iTMTWRiJJnGZsYbPk4oW7JxgZKj5BAk4wNZ5l29KiWsYnClo8TwrODTnWFAJgAk44NSUNlSv0PytiEYTO0ng0co1rbaqUNJovQjRtv5u7uci+gO6dvbNeCFFrqfBM6aAMRm0TRWHLM5M0ozHbrugFO0rFu4mEZv11RxiYHWz5OyHMjNxF6CdZN0rQXH9GVsaWKLR8nZCnfccKkY+0cWk8FZjquZhlbutjycUJWXshxwkRjrXIaBB+ujE0KNmM9ogf7VhLdSw1C1kDJw/eqlBILmly2XwaoWFgGQm9DsfWxRa0nhZ4GKwbrKoSF5cpvPHzSsXqXQGl9MCaSw3S8UsYmA5thN1AB3Zj96CQtnsmdC1Xd3BdmD3hIQEBhpIQUikiiILQQt8gO+laGAJJhGQ3WAyJFYZUw1MMsGitg2lTXvQGrZUDmlS2NgrrBVRmbHGz5OCGnkbDc4UlPPwnF8nHSSYY/y9jkYMvHCXltXkYsCbplk3xsUo7IlbGFY8vHCTkx0mlTGnRvwCoTa/LZcobnl7HJwZbfTqijAoN1nVpvwQKOA+dLDw+sjC19bPnthLpOGOtLScZ2paSMTQa2fJxQ2Hj+7LffeScZ65WGNsylckSujC0cWz5OCEOzxgrFDwnL4SmxWMeYkzHlO/ZskMrYBGDLxwl1S8k4ElgMNpxl2tGjWsYmCls+TgjPDjrVZXsAvQEbkgbtReh/UMYmDFs+Tgi6p+Ziw9thSce6iYdlpXRErowtHFs+TshzIzcRegnWTdK0Fx/RlbGlii0fJ2QpCUcCi8HaObSeCsx0XM0ytnSx5eOErDwRRwKLwVrlNAg+XBmbFOz/D86qO5rVKTEdAAAAAElFTkSuQmCC;" vertex="1" parent="1">
          <mxGeometry x="870" y="250" width="89.5" height="89.5" as="geometry" />
        </mxCell>
        <mxCell id="cr7O_yHZ1FezRyIz6jP2-2" value="" style="shape=image;verticalLabelPosition=bottom;labelBackgroundColor=default;verticalAlign=top;aspect=fixed;imageAspect=0;image=data:image/png,iVBORw0KGgoAAAANSUhEUgAAAU8AAAEbCAIAAADVsJFEAAAxs0lEQVR42uydDXAb13XvD0RKMrGUqogiQEcSDUBW6siA5MjSA2vL7jOgSB43JDPOe63IzNSTCKib2Anw2hlnTE7zYZdk7Jm2hPriiQPSrjNjUuk0mQqaZkw7oPpk2YHi+IMGqjimtVBsyeRCoqzSXNEyJeLN4lIguPjg7uLuAguc33A4IAgslsv933PuveejNplMAoIgVcAKvAQIgmpHEATVjiAIqh1BEFQ7giCodgRBUO0IgqDaEQRBtSMIgmpHEFQ7giCodgRBUO0IgqDaEQQpU2rxEugUnufj8Xj6Mcuy2Y8zicViyx7TlEL0JMMwNpst+7HRaEw/RnSBAfPbyxmO486fPw8A0WgUAFiW5Xk+kaJ8TtJutwOAzWZjGMZkMpnN5vSTCKodyU0sFuM4LpFIsCybSCTSplunMAxjtVrJKOBwOBobG8lAgFSv2j+chRfOLjy+dxN8tq5aLj3LsvEURNtlZa5VdQTIdMDhcFitVoZhUITVovYkwP4RuHb9FGoMMLIfDJXrlp85c4Zl2Wg0KmUWXQ2YTCYie5vNhs6/2pR+lW4+mftxxRjwWCxG5M3zPN5wIhKJRDgczrT8xOwTFwCvT6XZ9i++AOkzMAC8dK/ubTvHcbEUkUgEFa4Yq9Xa0tJClI9XA9VeXpw8eTKaQu+ra+UGwzB2u93hcDidTlznQ7WXWOSRFGjGtTH4brcbZY9qR5Gj7BFUO4ocZY+g2iXCcdzo6Gg4HK6SXXE94nQ69+7d63Q68VKg2pUb81/96lcnT57Ee0UXmEymtrY2t9uNG3iodqnwPB8Oh0OhEBpzneJ2u10ul8PhwEuhXO0fzsI7l2ieQc9YxtmUgdo5jjt8+HBmyAeiX+x2uzsFXgrZaieBrnQj3jIPVlq1o84r2L3v6OhAzctWe6bjTf9sSqR21DlqHtVe+WpHnaPmUe2Vr3ae50Oh0PDwMAqgOufzHR0d1baGV6Vqj0QiAwMDuN5e5bjdbo/HUz17dbLV/mcjcEU1ud/EwOBd6qqdZdmBgQFML0cIDMN0dHS0tbWh2nPwxhS8r1rM6J9thpVqan1gYCAUCuEtjoiwWq0+n6/ii2pWS106juN6e3sxFxUpgMfjqWwjXxVqD4fDAwMDmMeCLIvT6fT7/ZU6ky87tY9OwMuTiz9uroevb1V+NJ7nBwYGcIMNkY7JZPL5fBW5XF9eak8C7HsB5jPPr4hVep7nu7q60HtHFODz+SpvT768OkMdm1gi9WJgWdbj8aDUEWUEAoHKi8WgVnN2HmB6Dt64AGdmhB8/mFny2831wndLPezcAGtX5h5jkgB9Y+InmxmFUu/u7saJOlIMw8PDiUTC5/Oh2he5NAe/OAO/OQ8fXYGpK3lib7gFt7xhNXxmNfyPxhyNIj6cFb/XAPDjPbLdeJQ6Qguy4lMxgi9q3k50PnIWLlyRP4UwwB4TeG9Z0LyojQRhtQH+Q2YzCZQ6Qh23210Zgleu9nOz8LcROH+luGUDA3TY4Otb4ZlxeP602LA/sRtub5BxNJ7nPR4PSh2hzoEDBzo7O6vUkx+dgL63KSS6zycFkX8wA8c58a+MNbCzQd7Rurq6UOqIGhw+fNhms7W0tOj6r1CyJv/RHPSN0axpkS11A8BhlzwfPhAI4Ao8oh6BQCBnY/xKVnsS4BsnqO2T5eNLmwXbLp1wCrwjEfXgeT4QCOjaeZTtyR+byDtXX2WAJiOYboAbjcKPljWLvzrzMUxchsQncOETuHxtmY+4iQHfrfL+DQMDA3g7ImoTj8ePHDmi3wl8rVzDnr0lTubY7s/C3U3gWF8oiW0uCVfnYeQc/JqDty/Cp8ncUpe76zY0NITTdUQbjh492t7ertNAeiWevIhdDfAzF/hvhZ0Ny+SrrjRAXQ18uRme2A09u4CpyTFd//EewUeQDsdxR48exbsQ0cyfHxoaqop5+7PjYrXvboAf7pY3xybsbIDDrhyCl5vfjqWmEO3NO8dxFa72JMBQ1pZ4327lpWaMNTkW3j+clWfYR0dH8f5DNEanNqaorJgvbS62qlRdjTARyBxQvnZcRt27SCSCdx6iPTqtdKZc7QaQt3Ke7yAi70DWNj4adqQkJBIJPe69r9DvFed5HsNpkFKhx/gOHasd3XikhOix7a+O1a7TdVGkYpx5VLt2YE14pLTobuquXO3J1PZ78cjackOQ8kF3EZzy1C6Kohk6XWyXKLlbbnp3pRBUuz7Unp2FmgR47M2iPv7YhLhejfRCdKh2BD15FW17XVag63EOfvCmwgTY0QnoHRMPKAoK0SFISdBdbozseXu27T3OwTdfFaR7aU7SEeZTc/UfvClIPduHlx4nb7fb8YZDSoju+sbJy3gltve+EbFKx6cF6Tashm3rYHM9WOrhlnVgzDj25avC93cuwZkZ+M15OP1x7pi5ZgZvIQQpD7UT27urAV6bEj+fBLhwJVVzihMGBYMB1q9a/O3FT1OvSRZakJPrxptMJvz/IWjbVfTkSWQ7UzDFNZkKd79wZfFrPil8FV57/9JmeZntqHYE5+3qqj29OM/U0DwPudWpAEDvBUARXeN0OnV3zgqja0hq+k2UhrbdDUqW4m02W2NjI952SEnQo7FRHktnrIGn90DrZiWFazIP8q1t8MPd8nz4NBXZdhdBtZed2smKnf9W+FeXoPlmRoZiVxmE17duFt775ebquuJIBWC32/VYiJJC18e6GkHzc0mIXoT3efg1B4lPhOcvfLLkZRtuANMNwoM/MQtSL1ydVrraGxsbz58/j/cfoiU6be1eVNfHfMylDnl1aYRd7QoK8s4mHA4HAgG8/xDNsFgshw4d0uOZq5LxutKwUEw682ulQa1R1mKx4C2IaIbX69Xpma/Aq48gsmbs+l0brtXmY+YBJmfhhbPwwczCMyTAducGWLey2IM7HA673Y7FLRAN8Hg8+j15hfP2eTm+wYez8NibOWLjDQANq2H/JrjfUqzmeZ4/ePDg5cuX8XZE1OPgwYPt7e3pHzmOM5vNlaz2eYDH34SJ6wVnbqyD732h0OufGYdhdpm60Y2r4R9aYGOdvFOPRqOZPhXLsn6/H+9IRCVcLpfoBhPdgZU2b08CPPQqHOdgfHrh62WuUPT76AQ8f3r5EvHnr8DXjsNHc7LteeaPNpvN5/PhTYmogcViyV4e0l09FdmrdOPTS358eFveiNeP5nI3hM3JtSR844S8klXZlUPcbrfL5cJbE6GL0Wjs7u4WhdPwPK+7qsfy1C6qGGkAaG/O6wV844S8mjbnr8gra5mzoLff70fBI3Sl3tvbmz0/j0ajuvtb5HV9FFWMLFB84sNZuHBF9tnIKmsZj8dzlgFEwSN0pZ4zj12PzUvk2fbMGXiB4hMFKsk2M/CtbQtfmf0eFz9Czvnku+IoeITKXD2f1KuxV0y+8LhLc7lX5m5i4Ok98OXmha8ndguaFw0TD78qw7yHQqF8v/L7/bhohxQj9b6+vnxSD4fDuisvrUosHZmxZyuW+AKiPLn2ZnGSvGgVcFlnvsD0ye12+3w+o9GI9y4iC6fT2dfXVyDLTY8tH1VR+zzknrHnLERVfEnpwn3z3W53IBDAQHpEOgcPHsxegc8kGo1WXf/2nHPsfK54gWbvRWbLxGKxwqujZrP50KFDra2teB8jy3rv/f39mdFyCgxMZao9p7CPTcC707kNu3o9IQYGBpZ9jdfr7enpQa8eyYfL5SowUU9z5MgR/WZkFNUH7t1peOxN+HAWLs0JX8+Mi3u/LGvYqRCPx4eGhpZ9mcPhGBwcxLV6RERjY2NXV5ff71+2HA3P84cPH9bvXyojB46Umm17aYk9P87BicRC6fh8G+w5d9rocvjw4ZaWlmUHZoZh/H6/2+0OBoNnzpzBG73KMRqNbW1tnZ2dEl/f09Ojx6V4hba9LlfByXTp+HxjRN/uQm78s+NApXpOb2+vxP+Ew+E4dOgQLtdXOU6nMxAISJf60NCQ3rOq5andkJqBy6JAID2Z/A+dlvH6AiQSiZ6eHumvd7vdg4ODuHpXna57T09Pd3e39HzVSCSiax9eidohNQOXXkb+JiZvID3h2MQSw14g8F4KsVhMVo06hmG8Xm8wGMTJfPXo3OfzDQ4OyspUZVm2Mmofyq5dQ3bI//oE/IFfXuqF99KTIE6SW1X0wj0Je5AVRWc2m/1+f0dHx/Dw8OjoKEqiIrHb7e4Uct/Ismx3d7eup+vK1U40+eM98N3fwthF+DTXnNtYA+7PwkPbltlLf2xp43cDwOO7KGzUKRB8pubD4XAoFMIyOJWk846ODmVlJypJ6srr0q0ywA93wxtTcHwSJi4vFJAHANMNcKMRHrwl93qeyLCfXFoLYFcD7KS0eq9M8ETznZ2d7e3tR44cQc3rHafT2dbWpri8TIVJnVo9+bnrx5AVGPfGFLzPw5mPwbJG+FFu05i2trbCL3C73R6Pp5ieHuEUWN9SX5B9NbfbXUzRuEgkEggECkv9wIED0pf0dWzbRSiLft1Jz5jn0yrLsr29vYoFT2Z6HMeFQqFwOIymvlIn59l3TkW2JFGlV4w2LGvbCQzD9PT0UGmsj6a+bI252+1ua2srvgIsz/MDAwMSU9yq1LbnYx5geg4uX73+X6mlUD1ewf/P7/d7PB6Jo4MUUx+JRMLhMEbjlVzkLdehckCy0xaPxyv1iqli2y/NwRsX4OVJmJiFj67AxU8Xnl+/CvZvgq9vFQ8HhLUr5e3+y1Wv3W73+XwUC4Cj7CtD5IRQKDQ8PCxrTU53tp2y2ucB/mUcRs7C1JXc8bAGgJfuXdhmSwJ881W4eD3kdv1qeOoOGTtwCmw1wzAej4d6g04i+5MnT6KTrx6NjY0Oh4O6yMm/LxAIKPjfVbUnfy2VA/uunOIz49OLg8KFK3BsAlw3quvVBwKBcDhM18ibzeb2FDzPR6+DBp+KGSdtv1paWlTqyjI8PBwKhSppm00L204M9bJSz7TtAPDv78M/n1r87QqAF++Vat6LnId3dHS0tbWp13Of4zhSaSMSieBiviwsFktLS4sjhXqfEo1GBwYGipmlV69tf3ZcnlUntDfD/z21aN613B4YHh4Oh8MdHR0qdd43pyAHJ8pnWTYej6O3n9NLt9lsVqtVbYWnB+KBgQE9Fo0tC7Vnp7KlIaHvn+bXcTOzGHKfBNWd+UwSiUQgEAiFQh6PR9WbLFP5xKoQ5Uej0fPnz1eni26z2ex2OxG5Zr0TZW2wodpzI0plI+xqgD8xC2JOAnzntbyLdj/eA/eNLP62bwzuuVHFslbZxOPx7u7uYqKp5SKyYNFolOd5on+O4ypvwk+0bbVaTSaTzWYzmUzat0bleT6Uokqm6GqpPTuVDQC+tW0xErawfy6KwytVrE8sFiOab29vdzqdWn40UX7mUjPHcYlEglTXJJ4/y7K6mPxbLJb6+npTCrPZbDKZSt4FleO4o0eP6rQCfJl68pm0bpYd9F4mxFKYTCb15vPSPf9snZBRgDgCZCaSbjPKcZwGkwK73S56TCSdHrPKCpZlic5xZYSm2kXOuao1JzWbzw8MDLS1tblcrvLpyE9GAZEjkNOa5Ww2nB4msmEYJl9wsb5alBMwxlkjtVcMPM8Pp3A6nXv37tXYvacyKGRDPTSlrCBOeyQS0V1ndVR7uXAyBcMwpD88lQQbhO64TEKY0ZiXQO0fzsLGOqkvplVzVoNbiizqWq1Wt9vtdDrLx8Ov5oGY6Lwkn65eaJZu1E7aOf/MBZ+RkO720VzejfplaWxsLMlmdTweH0iBsi/VsBuLxSIpSrvMrjsvj4LaDamy0JkBsNeS8Ncn4MFb4H/emDetbR7gPyfg6XfEhl16hWmz2Vza0JS07E0mE8nWyFyyRqjPyYnIyycGTne2nU6cfBLgiy+IdWsAuHkt3FgHm+vh+QwD/tUt8MEMTMzCe9M53vKS5Dj5YDB49OjRsrqaDMOQFA673Y4GnwpE4dFotAzTzkOhUJV68rsa4LUp8RAwPp3qx84tef75/K67sUbffhTP82RJDwBIYIk9BSpfrsJJHmE5r7rpsU04zRy49peAv1bUjCD0RRmC53m+o6NDF1fZZDKRlA8SGY56zvbSz5w5Q9IH9LKu3tra6vV6q9S2k56QB0aVC/7hbfJsO8MwFotFF1HlJOgtPeHMzAapzqk+kTfLssRF12NMawlDLUtv2wmXr8HDry7fRkbEKgM8+HklwbaVURs0nS5is9lI7meFaZvn+Xg8zrJsIpHQkfUuQGNj4+DgYLWrndSW/48P4MgfYPJyoUTXtM63r4e/sCksNc3z/MGDByuvVgTJKiEhq+S7XlwAEq5PQndZliW7ZZXnm/h8PrTtSzQfvbjYSebCJ0t+u+GGha4ydzcVW1J+aGioAppvSvcCGIZJJ6LYbDayCUSe1+Yc0tl4RMzp2HudOuQKMBqNOr3ltKgnP5eEq/NLVwtWKGw4UT3mXTEiLyA9IsiCJNuK1h3w2urasOu7e0R1mncEZ+yKobMmf2kOfpGxNG6ph10bYK1WjSI6OzsjkQjWeEU0wO/36/fkKdj2JEDHMTh/JeOgqWCbvt3aFZxiWVbX/wZEF+iuyKyIFVSOcuGK+JnHdqku9cw1IZvNdvDgQbwdEfWwWCy6ljo1tWez0qCFPc/8sb293eVy4U2JqIHRaOzr69P7X7FCv6eeXXTJ6/XqMXoZKX+pF9MXvNLU3syIZ/LPjqt+6tlJUQzD9PX1oeARuni93soIcKSgdlITfvVS1/350/CMyoLPGaSFgkfoot/d9RxSpbXf/sYUfP8NcUrM3Wbw2dXq2d7W1tbf359z0OV5/tFHH8U9OYT0jbRarcqijAqU4q1qtZOUmG++Ch8sjZ7csBr2b5J6BEu9jLZQbW1tBbIOUfBVjsvlUqP9M6pdYHQCzszAfBJeOpdjQ076vEJWj1eGYYaHh/O9gOf5YDA4OjqK/+aq4sCBA263GyuIZEOtV0zfGMzTOI4seJ4Ph8P5plUMw/j9fpPJhHG1VYLFYvH7/VgvpIA1BVqCLwkFbDuhs7Ozp6fHaDTiP7viXfdDhw6h1LVQe6lIJBJDQ0OFX+NwOAKBABaErWAOHjyIodOVr3YAOHr0KMdxhV9jNpt7e3sxurYi8fl87e3teB20U3szA8aaYr92Ka1gI7FeVXt7ezAYRCNfYQ58xeyHqw21NfnskhUKqJNThbKtrS3zR1n5SeFwOBgMYg0MvWOxWA4dOoTXQWu1a49I7QDQ09Mjvf0wz/NDQ0Pl1n8CkUUwGMSdtuqat6fp7e3N1588G4ZhvF5vMBjUUatmROTDo9RLY9svzcEbFxYe79ygMFp2HmB6buHxskfItu2kWmsgEJAbIxmNRoeHh7EfsI4wGo2Dg4MVkJemP7WT8jXpELoNq2H4HnnVLEitq9+ch4+uH2TbOrirqVDfyJxqJwVYleUnouZLC+milVk5kxS0JcWqRUHQLpcLt9xKpvbMro/p5o3z0qYK52bhbyNLal2lj3PzWvjuF+CzdTLUXozgSUX04eFhjLfV0iFvaWlxOByF/18cx0UikVAoRBr7dnV1YQx8WagdALp3wMuTMDG70OP13k25FUtauP/FKFzLfxY1Bnj2bthYJ0PtRPA+n09xZBXHcaFQKBwO47q9qjrv6OiQO/cOp+jt7cULWC5qNyyNpV1hgA4bfH1r7inA+eWyaGoMMLJfPDUorHayDtfT01NkKGU4HD5y5Ajm0tHFYrF0d3fjGluFqD0nd5vhe19Q8kbS9V00WCyrdiJ4j8dTfPQFy7LEpKCpp2LSccpd+WrPFu3oBPSMSTvR62sBstROcLvdHo+HyvptJBIJh8Ppbq2IXLQsBfPeNDx4QuqLmVoI7avwi1+r8ecNnYavbV0QLcmTFdHMwI71woOJy/DbqSW/mgeoUeqNsyxbzDQ+DSmQwPN8JAXKvmylDgAzczJezF+FmatQX4u2Xb5tN9bAhhuEB9mdXrt3LBSoyX4XUwP/thdWXbfg//4+/POpxd9+bi08dceieZdu29N4PB4F7yp0i6RkH41GI5EIOvllJXUAeG4cfiqnOOI/OOG2BrTty3FsYoloWzfDg7dAbWrzLXoRfsYusdJ9Y3DPjTl24w0Ah12LUgeA9maIcPDa9feOTxd7ngMDA5FIxOfz0VofYhjGnYJs1xPl45JeOUidWBpZnJ5GtUsw7JkOeetm8N+6+OPOBvhCAzz62qJoC/gSoqwYA0DfbqkrAhKJxWJer7cjBd1L6UhBdu9isVg0BdkcRqmXJE1tclb2PB/n7ZIEn9an79YcRpu6aItkeHg4HA57PB41IjTMKcj9nVZ+djQYSl1t3r6o7uhQpWrXI4lEore31263d3R0SM+cK0b5JA40Go3G43GWZavB7JdQ6gqkK3d0QLXrjFgs1t3d7XQ6PR6P2sEeDMOkvX2R+DmOqzzLX9q+C5OXFY4RTXWodsku/bPjOWLmnh2Hck6jP5nC7XYfOHBAswAvkfhJDA/JAEmkYFlWv+v8JW+xMnZR4RiBal+GVQa4cl3Nz58Wvt9vgbWplNXpVHIbeZLw8LaFBflLc+KR4tiEuHvEY29qN0yQaDm1ffsC2FKIlhKi0Wj6ezwe53l+ZmamfBwBo9FIUtasVitZqsxMYishymz72MVKXpans9/++hR857UlstywGj6zWnjw0RVxM4mta+HPhRsDnn5H/CsDwF1m8N4ijK/TqYT5zEg7UTgd3Z1zEXa7Pb21VrawLEua2KcfpEeE9Gs4jlOwQCAq3Zf+Md0pqfxbJv2fiJJ5+B1mePx2VPtyDrysJfd0LF1OVhhgyxphmJi6suQ1uxugb7dGak/f3G1tbVgjRY+4f6nkXVvWwk/2oNqXQxT3Rv9Ei4iTLx6n07l3716saaUST50CsxG+Qq8x7+QsfPWY0gndfTT/tJ+fAe4yfHNbBc3bs+Pe8k3vP9VnzUuyjEci51wuFzYkociTb8PI2dSceQoe2UEnUn2yiMXN96bh5rUUzmHmKjw5Bq9wC48f2V76S13z/e9/n5bt3btRcL/P8jCXzKHz+zbD1z8Hr3I5fgsAuxqgdgX8d/40hm9tg8//0ZJnlu0JRZ25ubnf//73L7zwQjgcTiQS69at+8xnPoNypSJ1APiAh6N/gM+vg6aiu3i9wsFrFxS+d9s6Cmp/awoefhVOf7zw4+lp4GbhTnOlePJpZq/B0+/AxGVIfLLwzI71cHcT7GxY+O0P3oD/ugSXr3d6N9aA+7Pgv1Uw+399Av7A5zjmTQwM3iUOrf/2t79d8qVpk8nU0tKC1r54qWfyFUuxru+PTsEvlN4af7kVHtha1Kf/dByey5WNs39TiS28ivXk0zZ8pSHHiDBy7vol2LgYHj+XFP5P4Q/h6vyCz2+sgVvXwWO7lmTLEHp6eson4ZRhmJaWFrvd3tLSgoVQi5E6YctaQRiKbayyBXnC9vXwTy3K1wu++7pgyfNRWsGXY/eI2Wvwu0vwPi8eC0QMDQ2VZ6tmq9XqcDiI+FHVCqS+MIDWwgOfU7J09woHT4wBf1XhuZnr4LHblQw0I2cFW7Xs55ZQ8DruFRONRru7u8v8JO12u8PhsNlsdrsdbb50qae50yxp6W7mKrwyKej8FY6Ss1YLe5qET5cy2c5ckJNCqQRPTe2jE3BmZuGxpV4cElfY+fnlWSVvJL3fdBRbarVabTab1Wq12+1VO8+XJfW08B67PW+I21tT8OI52ceU9en3boL7rXkjat+aEv4oTmYSTkkETy26Zt8LkG76uALgxXsldY9IAvzdb+HXFxbf+C9/mqOYdD76+/v1W/idaN5kMpEhoBosvwKpp8leuhs5Cz8/U2iSTJc7zXC/RTzo5FuQK0/Bq9s9QsF7cxaT1rUzLxFTirT+GxsbKyyArxipE9JLd8rMKRV2rBdmFk11gk/65JjC3JtSCb7sMl7n5Qw+DoejsbGxMhLFSd6bqC8VsfkkyYR8J1kouvvrnhun4Gyfnoa/iUCTUTt7ns3YRfjqMUGlJyaVLwRmuifmumI3/HSsdrl0dnYGAoFKdX3j8ThJws85EUgPeeRBZuYZlUGB53lyApmJNyQtnzzpdDrb29slusE/HadwQfirpZR6pkppLQrs31Qdtp10dA3Eisppdbvd4XC4Cls1pv9kuX97Ojs17VAUs/Qg8ZU3r4Vvfh6e+h0gmTywVdN0eoVqf2YcPpgRT78zHz/25vIHmZjNkQ+rgI6OjoqZvWsAz/MlGRy/YoUTXOVXg5LOHWbhmmiJErUnU00gChvk45x2f4PD4WhtbT169CjeQGXOd3bAX71MYbpbATC1wtXQmBXldhV2NSicvVssFryHypymOnhkB14GAVrZfjpWO6lFLXH7Lb1WROaifr/faDTibVSStQPp7DELHmyVc79FuA7aU15q/9JmqVInK0yZP9psNq/XiwrUeAlAmT9vrqvei2augwc+V5qPLgu1rzJAMwPf2rakyYws205wu90+nw9FqBmiGngSqa8ti9IOpeKx20vWW7JWmb/9pc0wsTQ+XdSPVfr0+0Yj3N0EjvU5EmOXvdWyn3S73dFoVL/htLojEokoqNV5W4Pgzf6i+nrn/OVWOoVxtFM7gNgIZ0fO/nA3GFQ+9XzJ7X6/HwBQ8NoQjUaVVeZ9aBu8NQXsx1V0rWxrtAub08G8XYFhySf41tZWlKIGjI6OcpzC7dbvVNP6PFMLj+8q8TmsoDj3zvlYVcLhcL5feb1enMNrg+ICgSTArkrQOGyOpiefPZP/+13wPg9nPgbLGmhmQBu9nzx5kuO4fLlibrebYZj+/n799lfStYclhSoJsNM+bC63TvVbu4bUk3e5XGSing+WZfv7+6uzm7KqGI3GlusUc5zJ2QoPsGNqYchVsnX4Uqp9HuA/U1VuSJj95nqw1MPODbBupUK1A0AwGCycCs7zfDAYxHU7irhcro6ODloZ+H8TKTZRvJy53wIPlUf3CJpqH50Qvp+ZEQQs3BBZNac+nIXH3oT3ppfE2BsAGlbDg7fIq1GVqXa73d7b2yvF4USvvngsFkt3dzfFShsjZ+HJtzU6edsaqL9uV2bmtNsReP6esmgdS03tz4zDUKqRazIlYENWsapzs/C143AtmXfm37klRytoKWqX3j+Y5/menp4qTI+laNK9Xi/dolqdx1SsQsPUwp1muK0BdjTk1tvkLIxNwVtT8Aqn4mxi38ay2IBQq+tj6+Yle/JJgP0jeaWepnuHDAufqXayGifR4KCRV4YaLdnVM+ykJoysWhEjZ+G5cbWGnnIw73R24I5NiJ1z39Lwm2fHl5c6APSNKaxswfO8FGee0NLSMjg4iBvysjhw4IAa/a2fG1dF5z+4HYbukV0WZv8m4V2PbFcljP+5d0v/T1xBxbD3jS15RpTcQvLhJR7q0pzC04jH49JLVjEM4/V6g8EgNniQ6MB3dnZSP+zIWfqG9H4L/OSuojLM9m8SjnA/7fzpF88Js4ZKsO2FDbvI8hOaGcHbb2bEx/nGCeWFq8Lh8JEjR2QYAbO5t7e3p6cHNV8Ai8VSeI+zGLXTnaI/sh0e2kZhr6u+VjgO9dQd9YreS0T1TcBsy0+6OP54z0KDZ1GnxyILVw0ODtbX18vyOR0potFof39/ZZSvpYtKUp+cpbnrxtTCP7ZQTjjZvwm2rIW/iVBbvRs5W+lx8vMgttUGWJA6ibH98R7KgXeBQKBARG0BzQ8ODnZ1daGdz6S1tVWlgtavTJa11Ak3rxWOTAtuFt6brji1z2cY9odfFau9mVmS3LpShSBbZYInC3jEt3c6nSh10cYHZbf2HLVDPbRNxTTSm9fSdOlL68yvUMN1f/hV+GgOLs3Bs+Pw7nQOw65BFH0gEFCcreFwOLq7u4PBYGtrazVXv3K5XCr1q5mcpVYW/n6L6iXZ92+CfRspeTSc/uftzcySufe708JsPOckfJVBFWOek+Hh4UQioTgTzmw2e73ezs7OSCRSnSXriwyAL8DYFJ3jaFb16aFbYewihR0EblYY6Uq18U4nuubTJNw3svxaugHgid1w+9KyNudm4YH/p6SHnEQn02q1dnV1FW+jOI4LhUKRSKR6VvJCoRBFY86lotYmZ2HyMrX1uR/crl05R1qBQEytMDu4eS2YjanvddqJn1osXftLwF9b7u+sgSNfFG/Fi2LsbmJg8C6aaie7611dXekOSkUSuU5lR+M5nU7FPTlU0na2YR+6R9Nrol6Q74710GQUZL+jQUX9U4uTv3wN/tev4Er+g602wL/tBWPNkievAexfWuLql/ulFsOQu4DU1tbW0dFBMca7smV/4MABiRE1700LGjg9LTygOCFflke2a9pETeMEHjX0T22/3VgDf78Lvv9GbgvP1MD3doqlnnPFXr1ZfSgUikajPp+P1pZSOrWbZdlwOByNRispi176VXrwRAlOT+N+iYQ7m4A5pVEq/tjF6z5RKrg4fF85qR0AdjbAz1zw9DvCWV74ZOHJDTcIo9SDt0BdTY63nOMXLXntCjj4x+ou18fjcb/fT93I21KQuX0sFotEItFoVO8Gn26iG33hlaL7Qn0qo+7Fc3r9n1KOpaurAf+tMJeEq/OLGs5nrg0gjA6/u7Tw4+fX5R4R1DDykUjE4/FQX3M2pyCRfCzLRqPRWCyWrzYuUgy3NZTsc1HtYm98ZY3U0WFnKf5tiUSit7fXbrd7PB6VYsWIwSftzYny4/F4NBrF4Fw609oSqX3LWh1ftNpqvmNisZjf73e73QcOHFApjETk6pPk3LT4WZZF8SujVFvWN6PaczIPMD0Hl6/CO5fgzPVm76SI1S3rhP9WmdSyD6fQQPPp+TDJw8kUP8uyiUSC6B/LbCw/eq4p8afrtOmFKmq/NAe/OAO/OQ8fXYGLn0IyuWSPTfhugC1r4MY68N4Cn62rRs3nEz8hGo0mEgmO4xIpOI5DFyCT+pXV++llpPZ5gH8Zh5GzeRNXieyTSRifFr5OJGCPqRw173K5aEXjKCDnR7Msy6cg7S7THRfRHUBKoPZrqf3zd+UEV8wn4TgnaP7R7bJrzqqtebvd7k5RLu7r9Zl/vq0E4gtkOggFjkYGC6vVmm+nzWQyoTxQ7XmNtlypZ2q+N1XxonwET9bwYrHY8PAwMfVauvfKIPt/hR2EyqC0rSb02+iCmtqzk1vlDhZ9Y/CnN0JNmV2gRCIxnIKY+paWljIPO6kGTk9X76eXXu3L1pnMDH3/NJl3zv/wq/DUHWAoyytFTP3AwAAJmMVyF6WlVHmj701XvSefs1DsKgM0GWHH+oU+kGlIc8ixizB5Waz8cTmX0mg0ar86xfM8mdUzDIOyLyFjU9C0CQ275mrPWSi2mYFvbQPH+hxhsyR4bi4J0Yvwz6cE8Wce6tiE1Nm7zWYrYYUJkeztdjs6+Vry1lQJsmLI5+oXChmv2Y1iVhvg3/dJSlz9NAlffnFJnuyKrJZS+QgGg0ePHi2rq2m1Wom1Vykatzxpe7EEC1dMLYT2af2hM1ehc1THfyz96BoDwOO7pOaorzIIL/7Oa4uDhfSxpwy3iOIphoeHGYax2+0Oh8Nut1e88kP7BBm899+LKe4a9GPnr8LIWa3N+yuTGkl9+3q4eS001cGWtXDzH1HrBk3ftksvNVXk2zmO83q95S8GhmGsVisJmKue8tWTqWrKC/q/rEqoacXUrrGtSWnbuFjBonzn7aXCbDY3NjaWf0gpz/PprXvi7dtsNvK9gsXflCq3klk07q2phYLqZBQo3khys3CC07QuHRWpm+uEr9saBLvdVKdpmo2+c+Da2toGBwf1dc7E28+c6ptMJpIk19jYWMFuP8lI339dOVRKPj11Sjhsfa0WM3ZaDSr/saVkCXz0r5OsdfV8XeIksnfvXt2pPaf4MytekGhWh8PBMIzNZjMajZU3BNzZBEBD7dwsPPcuPLRN9RN+6hQdw25bU8q+znTUvsqwZF29bwz+eB1slPBXfTSXo0ucrCmxy+UaHR2tJCUQyy/aXDSlSMfD2mw2stun07lAfS21vNFfnBGcYVWX60bOUuvxUqqSOwQ6NWdfn1qyrg4AKwzQYYP7LbAuT3rgpTl44wI8/Y44W056hemF0V0na3Vqk5nfYjabRRsWJpNJSpx/OsGOjCOqRtr/PA5P/Y7a0Z7eo9YE+L1pmmU21TtP7dSeveVO2LAatq2DzfULRSwIZ2bggxk4dQmmruRoCCm9wnSaMtx4r4zhQ3o/fAVMzsJXj1E7mkqNH9+bptnjVftNBLXm7bsa4LWsMKMLV+A4B8CJO0YUmBEoqDBNmjdhvQfqEwqe59WLDmyqgzvM8Cqlvmj8VcEC060wT716/FcsJf6f0qkWZQDo2w2rDYWMf/qrwEEe36UkJYZhGHTm1SASiah6fOqbZ0++LXzNFG2KZ64uHIou+zdXhNrTWl1tKMo7UFx/tqWlpbW1FfVJF2VdsWXc/ZsE55YuI2fhr14ualGt+CPkZN9GLXYKNVI7ANzeAH+/CxhFGeq7GwTvoJhcV6/Xa7FYUKIUicVi6UU7lXhgK/1jcrOCWe48JihWup2fSYXidh4T3qtGwJw2vWiXMcm0+sClmb0GT78D4Q/h8jVJr29moP0m+HIzjckbz3/729/GCTxF7HZ7b2+vqh+hXitFsnq3pwl2rE8FnOdawyOBfWMX4YSaMfD7NsJ3dlSi2tOaHzkHv+bg1KWFvjEklZ2st9eugA03gOkG+BMz/Nlmmr3fWJbt6urCqowU6erqUq+ROwCc4OB7r2v0t2xZu+hOz1zVLln9+XtKGVSjutozZU96P5E8dlLW4vPrCnWMQsGXFQzDDAwMqJq6731ZrxXapXC/RYtov7JQe0lAwdNF1b33yVn4q5d1XNpRymxiyFX6JTrKq3Tlg81m6+3tNRqNKFQqxONx9dT+3dcrWeokFuC7v60I2z6fGptJ76cPUu2fSORcOfR+4nn+0UcfraSe6qXF7XZ7PB66Lv1z4/DT8aq4en+5VZUNCO3UPjoB/xqH0x8v6f1E9t5J76c/t5a4RDzP8/39/dhTmaJL39XVRau0/ltT8LfV9J8pbZB8UWp/ZhyGTi+TrGoAuMsMPnve3BhtOHLkiN4TY8toFsowHo+n+BY6parxVkLMdfCTu0o5gVeo9mfG4fnTUl/cuBqev6fEbSGi0Wh/fz9uxdPCbrd3dHQUkyT33dfhFa7qrtv+TfDIdl2p/aM5+N9heSUoPre29G0heJ4PBoMVlgxfcsfe7XY7nU65vj3ddFd98YPbtauuVazakwAdx+D8FZkfA/Dcn0qqb6E2kUgkGAyikadIY2OjrIkS3TRS/U2FagV/viTBNkpWzS9ckf2WJMDXjkM57Oy3tLQcOnQIU2go0tnZKev1T75dvVJf2JB7vTQfLVvtOcvIGWtgVwO0bl74amZyVKSYL5soHpIh29/fXz31ntXDYrHIWrH70Sl9N1eiwulpajUtVfTkkwD7XoD5pU/uaoDv7RQEnyZn1ycA+OoW+PrW8rruuHpXJAcPHmxvb5f44mrbcivMPzi1LlMnW+2iilRMDRz5Yu7lt0+TcN+IeB9eVmMJzQiHw0NDQ6h5BQSDQYlLdFW45VYY7Tfkiop2MwAcduVV7yoDPLxNH9fd7XYPDg76fL7Gxka8C6XT2NgofTX+yTGU+hK4WeGalPW8XURdwW309uYybcaOmqeC9EL3P49X4+76srzC0S+So6LaKw+i+Z6eHmzMvixWq1XiKycp1atgamH7+tL/4fs2CmdChfc0XLOsxVs2J6RJI8dxoVAoHA5j8myRPLQNZubgxXNFHWT7enh8lzDRfWtKrXpSy3KHWfhbmupg5io8MVZszdx9GzVNfS9qlW7ZVbci27+WD+EUov4tiNyyNk+MKRQ8UwsPbIWvLPUkRs7CC2e16B6dVub+TeJV9J/H4blxhesR2pevKta2fzi7jNplvd5YW+L8mQLuvdvt5jiOyB5X75VBbm65gretEd6YnT22f5Pw9daUIPsivYbCA83+TcJAkzP67StWuLMJ/u63smvvlKRSXbE7cCuWs9SioJrCr29YBcP36MD4sywbDoexZcWBAwfkBtLJtfAS08JnrsIrk3CCo9aOgqmFO82CkiXGtMtK1C9VUcpi1U75bPTm6hPZR6PR6qyZoUztEgVvroNHtiuJPymyrKXiJlMSVxNKWH8WV+mKgvRdJ80nI5FILBarqsoZmY3o6br0+zbCQ7cqjDzZY4bt65XP5/PVol6W2xrgJ3fBj/5rmb+rhKWmUe10MJvN7SlIml00RcUbfMVqLyB4phYe2VFsTmhTnfL28MWUl6mvFf6uO5tyhxKVvKo8qp0+LSlIRj2RfTwer8j1/EQiwXGc4sJV2YJP77EVSVMR9UeLLya1xwy3ueDvfrvEvyiHBhKyr2szA3/gUdHSZoAMk1Y+ycAhymdZtmKW9yKRiPSsmAKCz7nHppgdRUTgUGlNV18L/9SyuD+n114xc0n40Sm1zsayhk6LqPKH53mWZYn4OY7Tr89PpdT8c+Nwp5lmhcZimsOH76N5fd6bhle40lebVah2RCVYlk0kEizLksbpOvL8e3p6iilQpxLuXyp5l20NBO+q2HsM5+3lAlnezwxNI/Y//Z0siZXhKDA8PFyGale2LN9U0Q1HUO1lPe0nKsqOTiX6z3xAPALyW47jaK0LGI3GdKKbKQU5MfKkyWSiVVueOsqW5Utb7x3VjuR2BMgDiUaVOAhSxhfpSaxljjIrvQXVjlSMm1A9KFuWr2zbjvntSGWizLaXQ5d1VDuCqK7bcqiTgWpHECXIVW9lG3ZUO4LmvVom7ah2BKfui2xBtSOITpG7LH/zH6HaEUSf1MupesbUlrKzujZgnDyCVAto2xEE1Y4gCKodQRBUO4IgqHYEQVDtCIKg2hEEQbUjCIJqRxAE1Y4gqHYEQVDtCIKg2hEEQbUjCFKu/P8AAAD//0TIm5a4C0CBAAAAAElFTkSuQmCC;" vertex="1" parent="1">
          <mxGeometry x="1330" y="380" width="118.97" height="100.5" as="geometry" />
        </mxCell>
      </root>
    </mxGraphModel>
  </diagram>
</mxfile>
